<svg width="75" height="59" viewBox="0 0 75 59" fill="none" xmlns="http://www.w3.org/2000/svg">
<path d="M46.967 0.140869C46.967 0.140869 50.5548 4.34185 45.3148 10.6811C40.0748 17.0203 35.7454 22.3769 37.4759 26.3402C37.4759 26.3402 45.3872 14.5635 51.8211 14.4015C58.255 14.2395 54.0462 7.22528 46.967 0.140869Z" fill="#3ACC6C"/>
<path opacity="0.1" d="M46.967 0.140869C47.2811 0.546408 47.5288 0.990071 47.7027 1.45839C53.9798 8.06761 57.3505 14.234 51.2904 14.4176C45.6646 14.558 38.9171 23.5647 37.3071 25.838C37.3556 26.0216 37.4181 26.202 37.4941 26.3779C37.4941 26.3779 45.4053 14.6012 51.8392 14.4393C58.2731 14.2773 54.0461 7.22526 46.967 0.140869Z" fill="black"/>
<path d="M53.6361 5.49762C53.6361 6.97171 53.4492 8.19743 53.2201 8.19743C52.9909 8.19743 52.8101 6.99871 52.8101 5.49762C52.8101 3.99653 53.0392 4.71467 53.2683 4.71467C53.4974 4.71467 53.6361 4.01813 53.6361 5.49762Z" fill="#FFD037"/>
<path d="M55.9215 7.2577C54.4743 7.96508 53.2081 8.39707 53.0995 8.21348C52.991 8.02988 54.0764 7.31711 55.5115 6.59354C56.9466 5.86996 56.3858 6.39914 56.4944 6.59354C56.6029 6.78793 57.3747 6.55033 55.9215 7.2577Z" fill="#FFD037"/>
<path d="M28.0211 0.140869C28.0211 0.140869 24.4394 4.34185 29.6794 10.6811C34.9194 17.0203 39.2428 22.3769 37.5182 26.3402C37.5182 26.3402 29.613 14.5635 23.1731 14.4015C16.7331 14.2395 20.942 7.22528 28.0211 0.140869Z" fill="#3ACC6C"/>
<path opacity="0.1" d="M28.0211 0.140869C27.7106 0.547528 27.4651 0.990976 27.2914 1.45839C21.0083 8.06761 17.6436 14.234 23.7037 14.4176C29.3235 14.558 36.071 23.5647 37.687 25.838C37.6364 26.0217 37.572 26.2021 37.494 26.3779C37.494 26.3779 29.5888 14.5526 23.1368 14.3906C16.6848 14.2287 20.942 7.22526 28.0211 0.140869Z" fill="black"/>
<path d="M21.3579 5.49762C21.3579 6.97171 21.5388 8.19743 21.7679 8.19743C21.9971 8.19743 22.184 6.99871 22.184 5.49762C22.184 3.99653 21.9549 4.71467 21.7257 4.71467C21.4966 4.71467 21.3579 4.01813 21.3579 5.49762Z" fill="#FFD037"/>
<path d="M19.0666 7.2577C20.5199 7.96508 21.7801 8.39707 21.8887 8.21348C21.9972 8.02988 20.9118 7.31711 19.4767 6.59354C18.0415 5.86996 18.5963 6.39914 18.4878 6.59354C18.3792 6.78793 17.6194 6.55033 19.0666 7.2577Z" fill="#FFD037"/>
<path opacity="0.1" d="M37.5 58.4575C58.2107 58.4575 75 56.1512 75 53.3063C75 50.4613 58.2107 48.155 37.5 48.155C16.7893 48.155 0 50.4613 0 53.3063C0 56.1512 16.7893 58.4575 37.5 58.4575Z" fill="#6C63FF"/>
<path d="M56.7958 20.6706L56.6149 21.9827L56.3677 23.8348L56.2592 24.6069L56.0119 26.459L55.8974 27.2312L55.6501 29.0833L52.7799 50.1419C52.5206 52.021 49.0896 53.4897 44.941 53.4897H30.0411C25.8986 53.4897 22.4736 52.021 22.2022 50.1419L19.332 29.0833L19.0787 27.2312L18.9762 26.459L18.7169 24.6069L18.6144 23.8348L18.3612 21.9827L18.1803 20.6706C18.0416 19.5906 19.8928 18.7051 22.2384 18.7051H52.7437C55.0954 18.7051 56.9466 19.6068 56.7958 20.6706Z" fill="#65617D"/>
<path d="M56.6208 21.9827L56.3676 23.8347H18.6264L18.3792 21.9827H56.6208Z" fill="#9D9CB5"/>
<path d="M56.2651 24.6071L56.0119 26.4593H18.9882L18.735 24.6071H56.2651Z" fill="#9D9CB5"/>
<path d="M55.9034 27.2312L55.6502 29.0832H19.3441L19.0908 27.2312H55.9034Z" fill="#9D9CB5"/>
</svg>
