<svg width="538" height="371" viewBox="0 0 538 371" fill="none" xmlns="http://www.w3.org/2000/svg">
<g clip-path="url(#clip0)">
<path opacity="0.1" d="M166.118 18.8341C184.371 2.43103 213.026 -0.909039 239.107 0.39633C321.026 4.49825 394.973 44.3376 458.938 89.403C482.094 105.718 504.891 123.315 519.936 145.766C550.538 191.5 541.458 254.86 498.913 292.534C484.436 305.356 466.886 315.181 448.871 323.896C416.84 339.383 382.285 351.815 345.923 355.354C319.997 357.877 293.772 355.819 267.976 352.307C195.965 342.468 125.282 320.718 66.0345 283.49C40.0381 267.165 15.5457 246.87 4.83608 220.446C-5.87354 194.023 0.980617 160.571 27.5125 144.939C38.4876 138.473 51.6045 135.555 64.4514 132.81C83.3608 128.778 102.568 124.797 119.634 116.593C137.258 108.119 158.123 91.7303 154.636 72.9721C150.892 52.8619 147.889 35.186 166.118 18.8341Z" fill="#6C63FF"/>
<path d="M119.529 208.168C119.529 208.168 124.357 204.717 129.354 206.849C129.354 206.849 127.957 209.813 121.731 209.775L119.529 208.168Z" fill="#6C63FF"/>
<path d="M118.928 208.368C118.928 208.368 117.638 214.151 121.568 217.905C121.568 217.905 123.747 215.457 121.27 209.761L118.928 208.368Z" fill="#6C63FF"/>
<path d="M112.544 203.104C112.544 203.104 112.721 198.222 123.803 199.416C123.803 199.416 123.976 202.556 120.167 204.192C116.358 205.827 114.532 204.651 112.544 203.104Z" fill="#6C63FF"/>
<path d="M111.86 203.095C111.86 203.095 107.255 204.768 111.808 214.923C111.808 214.923 114.854 214.119 115.24 209.998C115.627 205.878 113.941 204.517 111.86 203.095Z" fill="#6C63FF"/>
<path d="M105.355 196.429C105.355 196.429 104.424 188.439 115.711 188.829C115.711 188.829 116.786 196.053 107.418 198.278L105.355 196.429Z" fill="#6C63FF"/>
<path d="M97.5647 187.668C97.5647 187.668 98.7614 178.53 110.137 180.802C110.137 180.802 110.481 188.653 99.5017 189.763L97.5647 187.668Z" fill="#6C63FF"/>
<path d="M91.7676 178.521C91.7676 178.521 94.0119 169.56 105.271 171.799C105.271 171.799 102.943 179.859 92.5731 180.128L91.7676 178.521Z" fill="#6C63FF"/>
<path d="M86.2497 169.588C86.2497 169.588 88.4242 160.297 99.2875 162.657C99.2875 162.657 96.0281 171.516 87.0087 171.125L86.2497 169.588Z" fill="#6C63FF"/>
<path d="M82.5851 161.04C82.5851 161.04 84.0985 149.738 94.226 151.837C94.226 151.837 91.7023 162.164 83.3767 162.643L82.5851 161.04Z" fill="#6C63FF"/>
<path d="M79.0603 150.676C79.0603 150.676 80.9554 139.272 91.2367 142.175C91.2367 142.175 87.6606 153.022 79.8286 152.214L79.0603 150.676Z" fill="#6C63FF"/>
<path d="M76.7507 141.009C76.7507 141.009 80.0102 129.553 87.8887 129.558C87.8887 129.558 84.5594 141.636 77.4957 143.253L76.7507 141.009Z" fill="#6C63FF"/>
<path d="M75.1583 131.523C75.1583 131.523 78.6645 117.745 85.0996 118.553C85.0996 118.553 82.7109 129.07 75.4656 133.637L75.1583 131.523Z" fill="#6C63FF"/>
<path d="M74.0269 120.179C74.0269 120.179 77.3655 108.686 83.6609 107.989C83.6609 107.989 81.5189 119.254 74.2783 123.124L74.0269 120.179Z" fill="#6C63FF"/>
<path d="M72.8534 109.624C72.8534 109.624 77.1279 98.0804 81.2907 97.6624C81.2907 97.6624 79.675 108.928 73.3423 111.473L72.8534 109.624Z" fill="#6C63FF"/>
<path d="M71.9548 99.7853C71.9548 99.7853 74.3761 87.3309 78.5016 86.1509C78.5016 86.1509 78.32 96.264 72.4064 100.691L71.9548 99.7853Z" fill="#6C63FF"/>
<path d="M69.892 86.9453C69.892 86.9453 72.5601 76.9947 75.8754 75.3642C75.8754 75.3642 75.6519 86.9778 70.7534 89.3005L69.892 86.9453Z" fill="#6C63FF"/>
<path d="M68.2622 78.5184L66.9818 61.2002C66.9818 61.2002 73.78 74.0495 68.8443 81.5612L68.2622 78.5184Z" fill="#6C63FF"/>
<path d="M62.7212 61.4697C62.7212 61.4697 57.697 48.9781 56.5795 48.3138C56.5795 48.3138 65.7991 56.2111 65.3334 66.7934L62.7212 61.4697Z" fill="#6C63FF"/>
<path d="M105.047 196.383C105.047 196.383 97.0152 195.644 97.6903 206.895C97.6903 206.895 104.954 207.792 106.952 198.389L105.047 196.383Z" fill="#6C63FF"/>
<path d="M97.1782 187.38C97.1782 187.38 87.9493 187.7 89.1414 199.198C89.1414 199.198 96.9408 200.285 99.0873 189.484L97.1782 187.38Z" fill="#6C63FF"/>
<path d="M91.707 179.273C91.707 179.273 83.1765 175.673 78.2036 185.995C78.2036 185.995 86.0681 188.964 92.5079 180.885L91.707 179.273Z" fill="#6C63FF"/>
<path d="M86.0635 169.681C86.0635 169.681 77.3282 165.834 72.6672 175.915C72.6672 175.915 81.7238 178.642 86.8318 171.214L86.0635 169.681Z" fill="#6C63FF"/>
<path d="M82.7016 161.277C82.7016 161.277 74.1432 153.724 67.8618 161.937C67.8618 161.937 76.5459 168.087 83.1486 163.014L82.7016 161.277Z" fill="#6C63FF"/>
<path d="M79.5167 150.388C79.5167 150.388 70.9024 142.658 64.6862 151.317C64.6862 151.317 74.2643 157.565 79.8799 152.056L79.5167 150.388Z" fill="#6C63FF"/>
<path d="M77.589 140.642C77.589 140.642 70.8047 130.84 63.3545 133.367C63.3545 133.367 70.4042 143.754 77.6076 143.006L77.589 140.642Z" fill="#6C63FF"/>
<path d="M75.3492 131.453C75.3492 131.453 68.4065 119.041 62.3998 121.47C62.3998 121.47 67.4194 131.021 75.5913 133.572L75.3492 131.453Z" fill="#6C63FF"/>
<path d="M74.4412 119.514C74.4412 119.514 67.4287 109.806 61.2684 111.26C61.2684 111.26 67.0748 121.154 75.1955 122.376L74.4412 119.514Z" fill="#6C63FF"/>
<path d="M73.5472 109.373C73.5472 109.373 67.9829 98.3917 63.8015 98.4521C63.8015 98.4521 66.693 109.462 73.2725 111.264L73.5472 109.373Z" fill="#6C63FF"/>
<path d="M72.1503 99.5344C72.1503 99.5344 66.0039 88.4318 61.7108 88.5712C61.7108 88.5712 65.0075 98.1408 71.9966 100.538L72.1503 99.5344Z" fill="#6C63FF"/>
<path d="M70.8326 87.5863C70.8326 87.5863 66.1995 78.3791 62.6234 77.4547C62.6234 77.4547 65.1984 88.7895 70.4554 90.0902L70.8326 87.5863Z" fill="#6C63FF"/>
<path d="M67.7408 78.2119L57.6411 64.0711C57.6411 64.0711 60.6352 78.2955 69.2401 80.9248L67.7408 78.2119Z" fill="#6C63FF"/>
<path d="M60.5839 62.7193C60.5839 62.7193 49.2177 55.5049 48.7521 54.2832C48.7521 54.2832 54.8053 64.7726 65.3567 66.2591L60.5839 62.7193Z" fill="#6C63FF"/>
<path d="M59.7877 59.3096C59.7877 59.3096 46.5823 47.5798 43.3322 47.7192C43.3322 47.7192 53.8555 47.7935 60.095 58.6499L59.7877 59.3096Z" fill="#6C63FF"/>
<path d="M70.7767 89.4445L70.3111 89.5235C67.2006 70.9185 63.2846 60.0064 59.2895 58.7893L59.4245 58.3247C63.6525 59.6068 67.5918 70.361 70.7767 89.4445Z" fill="#444053"/>
<path d="M76.015 133.985L75.3166 134.069C75.1024 132.331 74.9161 130.547 74.7718 128.773C73.5099 113.327 71.9268 99.1582 70.1573 88.5573L70.5438 88.0416C72.3179 98.6611 74.2084 113.248 75.4749 128.717C75.6192 130.482 75.8008 132.252 76.015 133.985Z" fill="#444053"/>
<path d="M132.953 216.567C132.827 216.516 120.274 211.49 106.957 198.863C99.1578 191.473 92.5822 182.896 87.4744 173.453C81.0905 161.649 76.9137 146.997 75.149 132.68L75.894 132.996C79.8519 165.133 95.4134 186.613 107.557 198.157C120.744 210.672 133.167 215.647 133.284 215.694L132.953 216.567Z" fill="#444053"/>
<g opacity="0.7">
<path opacity="0.7" d="M139.011 178.735C139.011 178.735 144.65 176.876 148.789 180.393C148.789 180.393 146.568 182.809 140.636 180.923L139.011 178.735Z" fill="#6C63FF"/>
<path opacity="0.7" d="M138.378 178.744C138.378 178.744 135.426 183.886 138.056 188.629C138.056 188.629 140.85 186.943 140.203 180.769L138.378 178.744Z" fill="#6C63FF"/>
<path opacity="0.7" d="M133.847 171.827C133.847 171.827 135.477 167.218 145.697 171.646C145.697 171.646 144.929 174.698 140.799 175.125C136.669 175.552 135.291 173.885 133.847 171.827Z" fill="#6C63FF"/>
<path opacity="0.7" d="M133.2 171.618C133.2 171.618 128.311 171.85 129.624 182.892C129.624 182.892 132.776 183.032 134.373 179.208C135.97 175.385 134.764 173.587 133.2 171.618Z" fill="#6C63FF"/>
<path opacity="0.7" d="M128.981 163.307C128.981 163.307 130.466 155.41 141.13 159.126C141.13 159.126 140.007 166.34 130.397 165.685L128.981 163.307Z" fill="#6C63FF"/>
<path opacity="0.7" d="M124.157 152.622C124.157 152.622 128.022 144.261 138.191 149.798C138.191 149.798 136.18 157.393 125.363 155.196L124.157 152.622Z" fill="#6C63FF"/>
<path opacity="0.7" d="M121.345 142.193C121.345 142.193 126.164 134.296 136.245 139.782C136.245 139.782 131.589 146.778 121.638 143.963L121.345 142.193Z" fill="#6C63FF"/>
<path opacity="0.7" d="M118.742 132.025C118.742 132.025 123.584 123.811 133.265 129.279C133.265 129.279 127.514 136.768 119.021 133.72L118.742 132.025Z" fill="#6C63FF"/>
<path opacity="0.7" d="M117.792 122.776C117.792 122.776 122.607 112.435 131.659 117.452C131.659 117.452 126.169 126.557 118.081 124.546L117.792 122.776Z" fill="#6C63FF"/>
<path opacity="0.7" d="M117.522 111.836C117.522 111.836 122.732 101.509 131.677 107.334C131.677 107.334 125.033 116.625 117.797 113.531L117.522 111.836Z" fill="#6C63FF"/>
<path opacity="0.7" d="M118.206 101.908C118.206 101.908 124.725 91.9391 132.25 94.2805C132.25 94.2805 125.466 104.84 118.244 104.273L118.206 101.908Z" fill="#6C63FF"/>
<path opacity="0.7" d="M119.529 92.3897C119.529 92.3897 126.979 80.2791 132.888 82.9595C132.888 82.9595 127.468 92.2922 119.193 94.4988L119.529 92.3897Z" fill="#6C63FF"/>
<path opacity="0.7" d="M121.806 81.2268C121.806 81.2268 128.427 71.2437 134.639 72.4469C134.639 72.4469 129.237 82.5693 121.172 84.1116L121.806 81.2268Z" fill="#6C63FF"/>
<path opacity="0.7" d="M123.84 70.7977C123.84 70.7977 131.36 61.0423 135.458 61.8878C135.458 61.8878 130.555 72.1635 123.752 72.707L123.84 70.7977Z" fill="#6C63FF"/>
<path opacity="0.7" d="M125.913 61.1399C125.913 61.1399 131.938 49.9908 136.231 50.0651C136.231 50.0651 133.037 59.6673 126.076 62.1433L125.913 61.1399Z" fill="#6C63FF"/>
<path opacity="0.7" d="M127.771 48.2673C127.771 48.2673 133.288 39.5618 136.939 38.9765C136.939 38.9765 133.26 50.0047 127.896 50.7805L127.771 48.2673Z" fill="#6C63FF"/>
<path opacity="0.7" d="M128.73 39.7383L132.674 22.8196C132.674 22.8196 135.332 37.1044 128.376 42.795L128.73 39.7383Z" fill="#6C63FF"/>
<path opacity="0.7" d="M128.534 21.8208C128.534 21.8208 127.458 8.40482 126.592 7.41998C126.592 7.41998 133.046 17.6771 129.442 27.6648L128.534 21.8208Z" fill="#6C63FF"/>
<path opacity="0.7" d="M128.697 163.182C128.697 163.182 121.247 160.097 118.542 171.042C118.542 171.042 125.205 174.052 129.917 165.667L128.697 163.182Z" fill="#6C63FF"/>
<path opacity="0.7" d="M123.868 152.251C123.868 152.251 114.961 149.821 112.67 161.152C112.67 161.152 119.794 164.506 125.065 154.829L123.868 152.251Z" fill="#6C63FF"/>
<path opacity="0.7" d="M121.065 142.89C121.065 142.89 113.997 136.921 106.165 145.301C106.165 145.301 112.786 150.472 121.349 144.66L121.065 142.89Z" fill="#6C63FF"/>
<path opacity="0.7" d="M118.542 132.057C118.542 132.057 111.343 125.795 103.893 134.031C103.893 134.031 111.725 139.327 118.816 133.753L118.542 132.057Z" fill="#6C63FF"/>
<path opacity="0.7" d="M117.838 123.04C117.838 123.04 111.916 113.285 103.469 119.259C103.469 119.259 109.927 127.714 117.745 124.834L117.838 123.04Z" fill="#6C63FF"/>
<path opacity="0.7" d="M118.043 111.696C118.043 111.696 112.12 101.76 103.609 108.189C103.609 108.189 110.891 117.015 117.89 113.406L118.043 111.696Z" fill="#6C63FF"/>
<path opacity="0.7" d="M119.105 101.815C119.105 101.815 115.552 90.4479 107.688 90.6663C107.688 90.6663 111.32 102.679 118.421 104.101L119.105 101.815Z" fill="#6C63FF"/>
<path opacity="0.7" d="M119.706 92.3805C119.706 92.3805 116.781 78.4674 110.323 79.0062C110.323 79.0062 112.269 89.6164 119.31 94.4802L119.706 92.3805Z" fill="#6C63FF"/>
<path opacity="0.7" d="M122.406 80.7158C122.406 80.7158 118.607 69.3623 112.288 68.921C112.288 68.921 114.882 80.0933 122.271 83.6703L122.406 80.7158Z" fill="#6C63FF"/>
<path opacity="0.7" d="M124.576 70.7652C124.576 70.7652 122.537 58.6313 118.523 57.4467C118.523 57.4467 118.006 68.8141 123.747 72.4933L124.576 70.7652Z" fill="#6C63FF"/>
<path opacity="0.7" d="M126.173 60.9587C126.173 60.9587 123.617 48.5321 119.478 47.394C119.478 47.394 119.771 57.5071 125.731 61.8692L126.173 60.9587Z" fill="#6C63FF"/>
<path opacity="0.7" d="M128.474 49.1779C128.474 49.1779 126.797 39.0136 123.659 37.0672C123.659 37.0672 122.728 48.6529 127.384 51.4681L128.474 49.1779Z" fill="#6C63FF"/>
<path opacity="0.7" d="M128.325 39.2738L122.895 22.7732C122.895 22.7732 121.498 37.2391 128.948 42.3072L128.325 39.2738Z" fill="#6C63FF"/>
<path opacity="0.7" d="M126.113 22.3783C126.113 22.3783 117.391 12.1072 117.326 10.8112C117.326 10.8112 119.994 22.6245 129.605 27.1724L126.113 22.3783Z" fill="#6C63FF"/>
<path opacity="0.7" d="M126.369 18.8896C126.369 18.8896 117.256 3.76867 114.113 2.9325C114.113 2.9325 124.134 6.1332 126.835 18.3368L126.369 18.8896Z" fill="#6C63FF"/>
<path opacity="0.7" d="M127.878 50.8874L127.412 50.8223C129.987 32.143 129.507 20.5573 126.052 18.2113L126.318 17.8258C129.982 20.3204 130.518 31.7528 127.878 50.8874Z" fill="#444053"/>
<path opacity="0.7" d="M119.589 95.0191L118.896 94.8936C119.212 93.1702 119.566 91.4142 119.957 89.6722C123.361 74.5513 126.076 60.5592 127.542 49.9118L128.069 49.5309C126.597 60.2154 124.05 74.686 120.646 89.8301C120.255 91.535 119.901 93.2817 119.589 95.0191Z" fill="#444053"/>
<path opacity="0.7" d="M149.329 190.738C149.227 190.655 138.741 182.13 129.773 166.118C124.532 156.748 120.813 146.608 118.756 136.075C116.181 122.91 116.558 107.683 119.147 93.4907L119.761 94.011C113.964 125.869 122.416 151.001 130.583 165.63C139.43 181.489 149.804 189.925 149.911 190.009L149.329 190.738Z" fill="#444053"/>
</g>
<path d="M472.318 350.458C472.318 350.458 452.631 349.273 454.954 363.038C454.954 363.038 454.488 365.467 456.7 366.573C456.7 366.573 456.737 365.551 458.721 365.899C459.427 366.018 460.144 366.052 460.858 366.002C461.824 365.934 462.743 365.556 463.475 364.924C463.475 364.924 469.007 362.643 471.158 353.621C471.158 353.621 472.751 351.652 472.69 351.145L469.365 352.539C469.365 352.539 470.502 354.931 469.608 356.915C469.608 356.915 469.5 352.627 468.863 352.734C468.732 352.757 467.135 353.566 467.135 353.566C467.135 353.566 469.091 357.747 467.601 360.757C467.601 360.757 468.159 355.624 466.511 353.863L464.183 355.229C464.183 355.229 466.465 359.53 464.919 363.038C464.919 363.038 465.314 357.654 463.689 355.559L461.571 357.208C461.571 357.208 463.717 361.449 462.409 364.357C462.409 364.357 462.237 358.09 461.114 357.617C461.114 357.617 459.252 359.247 458.977 359.939C458.977 359.939 460.444 363.015 459.536 364.64C459.536 364.64 458.977 360.46 458.516 360.46C458.516 360.46 456.654 363.224 456.477 365.105C456.477 365.105 456.556 362.285 458.069 360.181C457.004 360.381 456.021 360.888 455.243 361.639C455.243 361.639 455.531 359.684 458.502 359.512C458.502 359.512 460.029 357.417 460.439 357.287C460.439 357.287 457.454 357.04 455.648 357.839C455.648 357.839 457.24 355.981 460.984 356.831L463.075 355.127C463.075 355.127 459.149 354.592 457.487 355.182C457.487 355.182 459.401 353.552 463.638 354.741L465.915 353.385C465.915 353.385 462.572 352.664 460.579 352.92C460.579 352.92 462.684 351.786 466.586 353.013L468.215 352.284C468.215 352.284 465.761 351.819 465.044 351.726C464.327 351.633 464.29 351.452 464.29 351.452C465.841 351.194 467.434 351.371 468.89 351.963C468.89 351.963 472.378 350.676 472.318 350.458Z" fill="#6C63FF"/>
<path opacity="0.1" d="M458.758 370.122C466.453 370.122 472.69 369.07 472.69 367.771C472.69 366.473 466.453 365.421 458.758 365.421C451.064 365.421 444.826 366.473 444.826 367.771C444.826 369.07 451.064 370.122 458.758 370.122Z" fill="#6C63FF"/>
<path d="M510.08 314.191C510.08 314.191 498.984 313.527 500.302 321.284C500.234 321.678 500.293 322.082 500.469 322.44C500.646 322.798 500.931 323.091 501.285 323.277C501.285 323.277 501.308 322.701 502.425 322.896C502.823 322.966 503.228 322.986 503.631 322.957C504.175 322.92 504.692 322.706 505.103 322.348C505.103 322.348 508.223 321.062 509.438 315.975C509.438 315.975 510.337 314.864 510.299 314.581L508.437 315.38C508.437 315.38 509.075 316.727 508.572 317.847C508.572 317.847 508.511 315.427 508.153 315.487C508.078 315.487 507.18 315.952 507.18 315.952C507.18 315.952 508.278 318.302 507.45 320.007C507.45 320.007 507.766 317.113 506.835 316.123L505.517 316.89C505.517 316.89 506.802 319.315 505.932 321.294C505.932 321.294 506.155 318.26 505.238 317.076L504.046 318.005C504.046 318.005 505.252 320.397 504.511 322.037C504.511 322.037 504.414 318.507 503.78 318.237C503.328 318.62 502.923 319.055 502.574 319.533C502.574 319.533 503.403 321.271 502.891 322.186C502.891 322.186 502.574 319.83 502.318 319.821C502.318 319.821 501.275 321.382 501.168 322.451C501.218 321.459 501.528 320.498 502.067 319.663C501.466 319.776 500.91 320.062 500.47 320.485C500.47 320.485 500.633 319.385 502.332 319.287C502.332 319.287 503.194 318.102 503.422 318.033C503.422 318.033 501.741 317.893 500.721 318.344C500.721 318.344 501.62 317.303 503.729 317.773L504.912 316.816C504.912 316.816 502.695 316.514 501.76 316.848C501.76 316.848 502.84 315.919 505.228 316.597L506.514 315.831C505.525 315.615 504.512 315.527 503.501 315.571C503.501 315.571 504.688 314.934 506.886 315.626L507.817 315.213C507.817 315.213 506.421 314.943 506.029 314.902C505.638 314.86 505.601 314.744 505.601 314.744C506.477 314.598 507.376 314.698 508.199 315.032C508.199 315.032 510.113 314.316 510.08 314.191Z" fill="#6C63FF"/>
<path opacity="0.1" d="M502.44 325.28C506.778 325.28 510.295 324.687 510.295 323.956C510.295 323.224 506.778 322.632 502.44 322.632C498.101 322.632 494.584 323.224 494.584 323.956C494.584 324.687 498.101 325.28 502.44 325.28Z" fill="#6C63FF"/>
<path d="M444.57 320.927C444.57 320.927 431.169 320.118 432.753 329.488C432.67 329.963 432.741 330.452 432.954 330.884C433.168 331.316 433.513 331.67 433.94 331.895C433.94 331.895 433.94 331.203 435.314 331.43C435.795 331.51 436.284 331.535 436.771 331.504C437.428 331.457 438.051 331.199 438.55 330.77C438.55 330.77 442.317 329.219 443.783 323.073C443.783 323.073 444.868 321.735 444.822 321.391L442.563 322.353C442.563 322.353 443.336 323.983 442.726 325.335C442.726 325.335 442.657 322.413 442.219 322.483C442.13 322.483 441.045 323.045 441.045 323.045C441.045 323.045 442.373 325.883 441.371 327.941C441.371 327.941 441.753 324.448 440.631 323.25L439.039 324.179C439.039 324.179 440.589 327.105 439.537 329.498C439.537 329.498 439.807 325.832 438.703 324.388L437.26 325.507C437.26 325.507 438.722 328.392 437.833 330.376C437.833 330.376 437.716 326.111 436.948 325.786C436.948 325.786 435.686 326.896 435.495 327.351C435.495 327.351 436.492 329.447 435.872 330.552C435.872 330.552 435.495 327.714 435.183 327.7C435.183 327.7 433.926 329.581 433.786 330.873C433.849 329.68 434.223 328.523 434.871 327.519C434.147 327.656 433.478 328.002 432.948 328.513C432.948 328.513 433.144 327.18 435.183 327.063C435.183 327.063 436.222 325.637 436.501 325.549C436.501 325.549 434.471 325.382 433.241 325.925C433.241 325.925 434.322 324.666 436.869 325.238L438.294 324.081C438.294 324.081 435.626 323.714 434.489 324.118C434.489 324.118 435.793 323.008 438.68 323.816L440.231 322.887C440.231 322.887 437.954 322.395 436.594 322.571C436.594 322.571 438.028 321.805 440.682 322.636L441.795 322.181C441.795 322.181 440.128 321.856 439.639 321.805C439.15 321.754 439.127 321.619 439.127 321.619C440.184 321.444 441.269 321.564 442.261 321.967C442.261 321.967 444.612 321.075 444.57 320.927Z" fill="#6C63FF"/>
<path opacity="0.1" d="M435.341 334.31C440.58 334.31 444.826 333.595 444.826 332.712C444.826 331.83 440.58 331.114 435.341 331.114C430.103 331.114 425.856 331.83 425.856 332.712C425.856 333.595 430.103 334.31 435.341 334.31Z" fill="#6C63FF"/>
<path opacity="0.1" d="M332.496 325.786L285.789 343.815L217.517 370.141C214.942 365.37 211.143 358.843 206.44 351.094C190.273 324.36 163.517 282.778 139.705 246.237C112.865 205.065 89.77 170.298 89.77 170.298L106.491 165.463L243.071 125.944L332.496 325.786Z" fill="black"/>
<path d="M333.428 322.534L286.72 340.563L218.448 366.889C215.873 362.118 212.074 355.591 207.371 347.843C191.204 321.108 164.449 279.527 140.636 242.986C113.797 201.813 90.7012 167.047 90.7012 167.047L107.422 162.211L244.002 122.692L333.428 322.534Z" fill="white"/>
<path opacity="0.1" d="M333.428 322.534L286.72 340.563C260.633 345.984 234.012 348.426 207.371 347.842C191.204 321.108 164.449 279.527 140.636 242.986L107.422 162.211L244.002 122.692L333.428 322.534Z" fill="black"/>
<path d="M368.178 311.32C368.178 311.32 295.613 354.142 187.279 344.479L100.903 134.417L142.294 127.323L285.374 102.809L366.558 307.26L368.178 311.32Z" fill="#6C63FF"/>
<path opacity="0.1" d="M366.558 307.26C349.469 308.096 329.707 308.017 309.815 305.653C288.294 303.135 266.67 297.923 248.091 288.381C232.576 280.405 219.31 271.741 207.739 261.34C177.654 234.341 159.033 195.718 142.312 127.323L285.393 102.809L366.558 307.26Z" fill="black"/>
<path d="M419.784 295.516C419.784 295.516 366.274 305.978 311.859 299.535C290.338 297.003 268.69 291.805 250.135 282.263C234.62 274.287 221.354 265.623 209.783 255.222C172.532 221.775 152.878 170.573 132.604 67.1232C132.604 67.1232 221.54 88.534 309.41 41.6337C309.41 41.6337 339.048 226.183 419.784 295.516Z" fill="white"/>
<path opacity="0.1" d="M311.859 299.535C290.338 297.003 268.69 291.805 250.135 282.263C234.62 274.287 221.354 265.623 209.783 255.222C241.488 252.653 246.047 235.358 246.047 235.358C269.552 272.577 311.859 299.535 311.859 299.535Z" fill="black"/>
<path opacity="0.3" d="M178.595 105.104C178.595 105.104 226.369 110.544 271.084 85.4773L274.148 95.2931C274.148 95.2931 231.37 116.574 178.595 116.574V105.104Z" fill="#6C63FF"/>
<path opacity="0.3" d="M178.595 153.552C178.595 153.552 226.089 149.728 278.962 124.234L280.75 128.313C280.75 128.313 261.292 152.743 178.595 159.126V153.552Z" fill="black"/>
<path opacity="0.3" d="M184.224 172.449C184.224 172.449 231.719 168.626 284.592 143.137L286.38 147.215C286.38 147.215 266.926 171.669 184.224 178.056V172.449Z" fill="black"/>
<path opacity="0.3" d="M189.374 192.82C189.374 192.82 236.869 188.996 289.742 163.507L291.53 167.586C291.53 167.586 272.048 192.025 189.374 198.427V192.82Z" fill="black"/>
<path opacity="0.3" d="M195.488 210.277C195.488 210.277 242.983 206.454 295.856 180.964L297.644 185.043C297.644 185.043 278.189 209.487 195.488 215.889V210.277Z" fill="black"/>
<path opacity="0.1" d="M201.122 229.193C201.122 229.193 248.617 225.37 301.49 199.881L303.278 203.959C303.278 203.959 283.819 228.404 201.122 234.8V229.193Z" fill="black"/>
<path opacity="0.3" d="M300.098 111.513L286.808 116.027L291.332 129.286L304.622 124.772L300.098 111.513Z" fill="#6C63FF"/>
<path opacity="0.3" d="M307.658 131.238L294.368 135.752L298.892 149.011L312.182 144.497L307.658 131.238Z" fill="#6C63FF"/>
<path opacity="0.3" d="M319.779 169.191L306.489 173.705L311.013 186.964L324.303 182.45L319.779 169.191Z" fill="#6C63FF"/>
<path opacity="0.3" d="M326.733 189.561L313.443 194.075L317.967 207.334L331.257 202.82L326.733 189.561Z" fill="#6C63FF"/>
<path opacity="0.3" d="M313.823 151.729L300.533 156.243L305.057 169.502L318.347 164.988L313.823 151.729Z" fill="#6C63FF"/>
<path d="M452.784 208.986L452.286 208.521C453.571 208.261 454.782 208.145 454.782 208.145C454.782 208.145 450.372 192.23 442.936 186.92C439.257 184.295 436.194 179.924 434.028 176.175C430.081 169.396 425.648 162.911 420.762 156.771L419.421 155.085L418.844 154.351C419.649 153.134 420.637 151.977 420.525 150.565C420.523 150.555 420.523 150.546 420.525 150.537C420.53 150.463 420.53 150.388 420.525 150.314C420.511 150.139 420.48 149.966 420.432 149.798L420.381 149.877C419.752 148.056 417.335 147.252 415.543 146.249C411.352 143.894 409.559 138.747 408.665 133.962C407.967 130.245 407.389 126.065 404.474 123.672C402.612 122.135 400.079 121.628 398.202 120.1C396.424 118.65 395.432 116.453 394.314 114.432C392.452 111.064 389.993 107.929 386.748 105.917C383.502 103.906 379.381 103.13 375.819 104.477C374.455 104.997 373.216 105.806 371.866 106.368C368.513 107.762 364.672 107.576 361.352 109.048C357.264 110.86 354.605 114.864 352.174 118.664C350.917 120.629 348.943 123.505 347.821 126.399C347.821 126.297 347.821 126.199 347.821 126.097C347.282 127.372 346.988 128.737 346.954 130.12C346.932 130.708 346.997 131.297 347.145 131.867C347.648 133.725 349.148 134.752 350.926 135.467C351.029 136.058 351.166 136.643 351.336 137.218C352.141 139.862 353.573 142.272 355.51 144.246C357.447 146.22 359.833 147.699 362.465 148.558C362.618 148.614 362.777 148.651 362.93 148.697C363.06 149.065 363.247 149.41 363.485 149.719C364.97 151.577 367.95 151.048 369.887 149.696C369.966 149.645 370.041 149.58 370.115 149.524C370.128 149.787 370.156 150.049 370.199 150.309C370.241 150.532 370.273 150.774 370.32 150.973C372.066 160.362 376.536 165.43 376.536 165.43C376.536 165.43 376.951 166.053 377.626 167.084C377.272 172.263 379.642 176.983 382.38 180.63C380.019 181.991 374.93 184.658 371.782 184.435C371.782 184.435 360.216 185.926 358.875 185.178C358.688 185.076 358.512 185.215 358.344 185.531C355.159 183.594 344.975 178.01 344.105 185.178C343.318 191.681 352.598 192.513 357.017 192.545C356.817 194.45 356.705 195.974 356.705 195.974L375.707 194.678L385.602 193.224C384.508 194.668 383.274 195.955 382.068 196.582C382.068 196.582 373.123 203.806 371.577 203.871C371.358 203.871 371.289 204.089 371.321 204.438C367.559 204.438 355.857 204.981 359.103 211.485C362.05 217.38 370.348 213.301 374.101 211.048C374.986 212.762 375.74 214.105 375.74 214.105L391.073 203.211L394.393 200.424C395.519 200.37 396.63 200.156 397.695 199.788C397.695 199.83 397.727 199.871 397.741 199.909C397.86 200.25 397.949 200.601 398.007 200.958C398.938 206.296 395.809 218.746 395.809 218.746C395.809 218.746 388.927 236.254 392.233 238.642C395.539 241.03 393.094 251.106 393.094 251.106C393.671 252.074 394.335 252.989 395.078 253.837C395.428 254.241 395.816 254.609 396.237 254.938C396.084 255.356 395.956 255.783 395.856 256.216C395.35 258.363 395.541 260.614 396.4 262.645C398.673 268.145 397.29 276.117 397.29 276.117L392.829 306.182C390.687 305.857 387.921 305.588 386.892 306.182C385.314 307.07 385.83 311.543 389.495 313.466C388.382 314.316 387.094 314.908 385.723 315.199C382.464 315.942 380.173 316.416 378.664 316.704C378.566 316.704 370.842 315.004 368.858 316.128C366.874 317.252 367.829 323.487 373.472 325.015C378.995 326.506 399.59 328.694 405.522 327.802L405.899 327.737C410.942 326.743 406.514 320.133 405.955 319.329C405.918 319.059 405.885 318.776 405.848 318.469C405.769 317.782 405.699 316.992 405.648 316.147C411.273 316.662 416.823 316.913 419.37 316.532C419.491 316.532 419.603 316.495 419.705 316.472C424.171 315.589 420.259 309.745 419.757 309.039C419.735 308.86 419.712 308.669 419.687 308.468V308.417C419.687 308.282 419.654 308.138 419.64 307.999C419.626 307.859 419.64 307.762 419.603 307.636C419.566 307.511 419.603 307.413 419.57 307.297C419.552 307.068 419.533 306.831 419.514 306.586C419.514 306.489 419.514 306.387 419.514 306.284C419.514 306.099 419.491 305.913 419.482 305.722C419.482 305.62 419.482 305.518 419.482 305.411C419.482 305.132 419.482 304.844 419.454 304.556C419.454 304.477 419.454 304.398 419.454 304.319C419.454 304.087 419.454 303.855 419.454 303.613C419.454 303.502 419.454 303.39 419.454 303.274C419.454 303.028 419.454 302.782 419.454 302.531C419.454 302.447 419.454 302.368 419.454 302.285C419.454 301.973 419.482 301.653 419.5 301.332L419.528 300.989C419.528 300.752 419.566 300.524 419.589 300.283C419.589 300.166 419.589 300.05 419.626 299.934C419.663 299.609 419.705 299.284 419.752 298.954C419.752 298.856 419.785 298.759 419.798 298.661C419.84 298.415 419.882 298.164 419.929 297.913C419.929 297.793 419.975 297.667 420.003 297.542C420.059 297.272 420.12 297.003 420.185 296.733C420.185 296.659 420.218 296.585 420.236 296.51C420.32 296.185 420.413 295.865 420.511 295.544C420.544 295.433 420.581 295.321 420.618 295.21C420.697 294.968 420.781 294.745 420.869 294.494L420.981 294.197C421.107 293.881 421.242 293.57 421.382 293.268C421.419 293.189 421.461 293.11 421.503 293.031C421.619 292.789 421.745 292.566 421.875 292.316L422.034 292.042C422.21 291.744 422.392 291.447 422.592 291.164C427.714 283.879 429.065 269.832 428.939 266.775C428.813 263.718 429.549 257.377 430.466 256.439C431.081 255.812 434.657 250.864 436.794 247.102C437.181 246.414 437.516 245.768 437.781 245.192C439.299 244.667 440.305 244.263 440.305 244.263C439.77 242.313 439.513 240.297 439.541 238.275C439.579 234.322 440.668 229.114 445.166 224.887C451.806 218.644 452.733 212.456 452.821 210.077C452.821 209.91 452.821 209.761 452.821 209.636C452.807 209.199 452.784 208.986 452.784 208.986Z" fill="url(#paint0_linear)"/>
<path d="M435.09 247.947C433.288 251.159 431.265 254.244 429.037 257.177C428.161 258.107 427.458 264.383 427.579 267.397C427.7 270.412 426.42 284.311 421.526 291.512C416.632 298.712 419.147 311.157 419.147 311.157L411.338 313.889H401.955L395.492 311.961L393.788 307.269C393.788 307.269 396.06 306.921 401.704 305.583C403.269 305.265 404.688 304.445 405.743 303.248C406.798 302.052 407.431 300.543 407.548 298.954L411.51 271.346C411.51 271.346 412.679 264.378 410.751 259.556C410.208 258.199 409.983 256.736 410.093 255.279C410.202 253.822 410.644 252.409 411.384 251.148L411.51 250.953C411.51 250.953 417.624 246.135 423.854 243.12C429.372 240.463 434.969 239.2 436.557 243.915C436.762 244.523 436.091 246.089 435.09 247.947Z" fill="#A5636D"/>
<path opacity="0.05" d="M435.09 247.947C433.288 251.159 431.265 254.244 429.037 257.177C428.161 258.107 427.458 264.383 427.579 267.397C427.7 270.412 426.42 284.311 421.526 291.512C418.08 296.589 418.308 304.264 418.732 308.356C418.914 310.07 419.137 311.144 419.137 311.144L411.329 313.875H401.955L395.492 311.961L393.788 307.269C393.788 307.269 394.356 307.181 395.651 306.93C396.945 306.679 398.91 306.252 401.732 305.583C403.292 305.26 404.704 304.437 405.754 303.241C406.803 302.045 407.433 300.54 407.548 298.954L411.51 271.346C411.51 271.346 412.679 264.378 410.751 259.556C410.208 258.199 409.983 256.736 410.093 255.279C410.202 253.822 410.644 252.409 411.384 251.148L411.51 250.953C411.51 250.953 417.624 246.135 423.854 243.12C429.372 240.463 434.969 239.2 436.557 243.915C436.762 244.523 436.091 246.089 435.09 247.947Z" fill="black"/>
<path opacity="0.1" d="M419.147 311.162L411.338 313.894H401.955L395.492 311.961L393.788 307.269C393.788 307.269 394.356 307.181 395.651 306.93C395.559 307.783 395.784 308.639 396.282 309.337C396.781 310.036 397.519 310.528 398.356 310.721L402.025 310.846C402.542 310.846 403.064 310.874 403.576 310.874C408.737 310.877 413.863 310.028 418.746 308.361C418.932 310.075 419.147 311.162 419.147 311.162Z" fill="black"/>
<path d="M402.021 311.636L398.347 311.511C398.347 311.511 394.92 310.786 395.758 306.907C395.758 306.907 389.146 305.411 387.455 306.401C385.765 307.39 386.58 312.848 391.357 314.186C396.014 315.492 413.457 317.41 418.471 316.625L418.793 316.569C423.337 315.64 418.793 309.137 418.793 309.137C413.4 310.978 407.717 311.825 402.021 311.636Z" fill="#BEBED0"/>
<path d="M424.646 249.015C424.399 249.508 424.134 250.019 423.831 250.553C421.526 254.734 417.829 259.997 417.182 260.68C416.194 261.73 415.408 268.81 415.533 272.229C415.659 275.648 414.225 291.312 408.702 299.442C405.876 303.623 405.238 309.313 405.285 313.894C405.299 315.446 405.39 316.996 405.559 318.539C405.764 320.43 406.025 321.61 406.025 321.61L397.215 324.69H386.613L379.316 322.525L377.407 317.21C377.407 317.21 378.045 317.108 379.479 316.825C380.913 316.541 383.148 316.068 386.343 315.315C388.105 314.951 389.701 314.025 390.888 312.675C392.075 311.325 392.789 309.627 392.922 307.836L397.387 276.679C397.387 276.679 398.705 268.805 396.535 263.37C395.716 261.352 395.534 259.134 396.014 257.01C396.273 255.817 396.747 254.681 397.411 253.656C397.411 253.656 399.115 252.318 401.685 250.548C402.821 249.768 404.139 248.904 405.555 248.031C411.776 244.189 419.957 240.268 423.877 243.125C424.742 243.776 425.375 244.686 425.684 245.722C425.842 246.261 425.4 247.482 424.646 249.015Z" fill="#A5636D"/>
<path opacity="0.1" d="M406.002 321.614L397.192 324.694H386.613L379.316 322.529L377.407 317.215C377.407 317.215 378.045 317.113 379.479 316.829C379.387 317.459 379.453 318.102 379.669 318.7C379.885 319.299 380.245 319.835 380.718 320.262C381.452 320.885 382.38 321.233 383.344 321.247L386.682 321.354C387.265 321.354 387.851 321.387 388.433 321.387C394.26 321.385 400.046 320.425 405.559 318.544C405.764 320.434 406.002 321.614 406.002 321.614Z" fill="black"/>
<path d="M386.678 322.144L383.344 322.032C382.379 322.016 381.45 321.668 380.713 321.048C379.866 320.295 379.135 318.994 379.61 316.806C379.61 316.806 372.159 315.12 370.236 316.235C368.313 317.35 369.254 323.514 374.641 325.024C379.917 326.497 399.585 328.661 405.247 327.779L405.606 327.714C410.728 326.664 405.606 319.315 405.606 319.315C399.522 321.4 393.107 322.358 386.678 322.144Z" fill="#BEBED0"/>
<path opacity="0.1" d="M435.09 247.947C431.9 249.057 427.216 250.53 424.646 250.59C424.38 250.6 424.113 250.588 423.849 250.553C422.052 250.307 416.497 250.702 411.403 251.157C409.359 251.338 407.394 251.529 405.769 251.696C403.348 251.947 401.681 252.128 401.681 252.128V250.553C402.817 249.773 404.135 248.909 405.55 248.035C411.771 244.193 419.952 240.273 423.873 243.13C429.391 240.472 434.987 239.209 436.575 243.924C436.762 244.523 436.091 246.089 435.09 247.947Z" fill="black"/>
<path d="M450.395 211.308C450.307 213.664 449.422 219.777 443.08 225.955C434.997 233.829 438.424 245.136 438.424 245.136C438.424 245.136 428.785 248.913 424.627 249.015C424.361 249.026 424.095 249.013 423.831 248.978C421.335 248.63 411.426 249.545 405.732 250.121C403.31 250.372 401.643 250.553 401.643 250.553V217.106L446.312 206.287L450.358 210.305C450.393 210.638 450.406 210.973 450.395 211.308Z" fill="#5C5C8E"/>
<g opacity="0.1">
<path opacity="0.1" d="M402.398 250.14L401.662 250.219V250.572C401.662 250.572 403.329 250.39 405.75 250.14C409.838 249.726 416.083 249.145 420.213 248.974C417.354 248.713 407.911 249.582 402.398 250.14Z" fill="black"/>
<path opacity="0.1" d="M450.377 210.324L446.33 206.301L443.634 206.974L447.024 210.342C447.047 210.678 447.047 211.015 447.024 211.35C446.936 213.701 446.051 219.819 439.709 225.997C431.625 233.867 435.053 245.178 435.053 245.178C435.053 245.178 427.076 248.3 422.508 248.946C422.944 248.944 423.379 248.968 423.812 249.015C424.076 249.052 424.342 249.066 424.608 249.057C428.766 248.955 438.405 245.178 438.405 245.178C438.405 245.178 434.959 233.867 443.061 225.997C449.403 219.819 450.288 213.701 450.377 211.35C450.4 211.008 450.4 210.665 450.377 210.324Z" fill="black"/>
</g>
<path d="M361.133 187.682C361.133 187.682 347.63 178.335 346.638 186.753C345.646 195.17 361.133 193.967 361.133 193.967V187.682Z" fill="#A5636D"/>
<path d="M384.415 181.485C384.415 181.485 377.109 186.307 373.067 186.009C373.067 186.009 362.022 187.487 360.737 186.748C359.452 186.009 358.67 197.432 358.67 197.432L376.83 196.155L388.47 194.38C388.47 194.38 394.291 190.841 394.291 187.789C394.291 184.736 384.415 181.485 384.415 181.485Z" fill="#F7CDDD"/>
<path opacity="0.05" d="M384.415 181.485C384.415 181.485 377.109 186.307 373.067 186.009C373.067 186.009 362.022 187.487 360.737 186.748C359.452 186.009 358.67 197.432 358.67 197.432L376.83 196.155L388.47 194.38C388.47 194.38 394.291 190.841 394.291 187.789C394.291 184.736 384.415 181.485 384.415 181.485Z" fill="black"/>
<path d="M373.7 205.808C373.7 205.808 357.277 205.13 360.956 212.776C364.635 220.423 377.081 211.141 377.081 211.141L373.7 205.808Z" fill="#A5636D"/>
<path d="M390.221 189.554C390.221 189.554 376.909 179.617 378.785 167.516C380.662 155.414 390.221 176.779 390.221 176.779V189.554Z" fill="#5C5C8E"/>
<path d="M386.543 134.691C386.538 139.044 384.84 143.226 381.807 146.356C381.069 147.125 380.255 147.817 379.377 148.423C377.7 149.589 375.831 150.451 373.854 150.969C373.069 151.164 372.271 151.306 371.466 151.391C370.888 151.447 370.306 151.48 369.715 151.48C367.826 151.491 365.95 151.176 364.169 150.551C361.253 149.535 358.674 147.739 356.713 145.358C354.752 142.978 353.486 140.105 353.053 137.054C352.62 134.003 353.037 130.892 354.258 128.062C355.479 125.232 357.457 122.792 359.976 121.009C362.494 119.225 365.456 118.168 368.537 117.952C371.618 117.737 374.699 118.371 377.442 119.786C380.186 121.201 382.486 123.342 384.091 125.974C385.696 128.606 386.545 131.629 386.543 134.71V134.691Z" fill="#A5636D"/>
<path opacity="0.1" d="M450.395 211.308C448.887 211.587 447.024 212.089 447.024 212.869C447.024 214.184 425.987 221.268 425.987 221.268C425.987 221.268 426.774 223.098 424.674 226.248C422.574 229.398 405.476 247.496 405.476 247.496L405.531 248.035L405.75 250.121L406.793 260.09C406.793 260.09 400.219 257.73 398.114 257.99C397.434 258.079 396.717 257.642 396.014 257.015C396.274 255.822 396.747 254.686 397.411 253.661C397.411 253.661 399.115 252.323 401.685 250.553V217.106L446.354 206.287L450.4 210.305C450.421 210.639 450.42 210.974 450.395 211.308Z" fill="black"/>
<path d="M452.286 209.459C452.286 209.459 447.024 209.98 447.024 211.294C447.024 212.609 425.987 219.693 425.987 219.693C425.987 219.693 426.774 221.524 424.674 224.673C422.574 227.823 405.475 245.926 405.475 245.926L406.793 258.515C406.793 258.515 400.218 256.155 398.114 256.416C397.183 256.532 396.135 255.668 395.273 254.66C394.562 253.819 393.927 252.915 393.378 251.961C393.378 251.961 395.748 241.987 392.591 239.627C389.434 237.267 396.009 219.954 396.009 219.954C396.009 219.954 398.98 207.643 398.104 202.361C398.05 202.008 397.966 201.66 397.853 201.321C397.853 201.283 397.83 201.242 397.816 201.205C395.953 196.16 375.763 153.821 375.763 153.821C375.776 152.62 375.86 151.421 376.015 150.23C376.057 149.9 376.113 149.557 376.173 149.208C376.275 148.582 376.412 147.961 376.583 147.35C376.69 146.958 376.817 146.572 376.965 146.193C377.589 144.595 378.543 143.364 379.968 143.336C379.968 143.336 381.546 141.594 385.248 141.12C387.958 140.767 391.828 141.12 397.066 143.336C409.419 148.576 412.316 148.846 412.316 148.846L418.523 156.975L419.798 158.643C424.475 164.728 428.709 171.14 432.468 177.829C434.536 181.545 437.465 185.861 440.976 188.457C448.076 193.721 452.286 209.459 452.286 209.459Z" fill="#F7CDDD"/>
<path opacity="0.1" d="M406.197 179.125C406.197 179.125 423.752 183.454 430.555 194.371L406.197 179.125Z" fill="black"/>
<path opacity="0.1" d="M411.622 198.306C411.622 198.306 414.942 220.543 414.02 222.216C413.098 223.888 411.622 198.306 411.622 198.306Z" fill="black"/>
<path opacity="0.1" d="M410.435 209.72C409.159 211.387 403.976 224.278 403.976 224.278L405.471 245.926L406.789 258.515C406.789 258.515 400.218 256.155 398.114 256.416C397.183 256.532 396.13 255.668 395.273 254.66C396.638 247.287 399.557 231.86 400.083 231.562C400.777 231.168 404.33 218.774 404.516 215.303C404.703 211.833 409.638 204.099 409.638 204.099C409.638 204.099 411.72 208.052 410.435 209.72Z" fill="black"/>
<path opacity="0.1" d="M405.476 188.471C405.15 189.452 404.647 195.161 404.647 195.161C404.284 200.187 400.456 201.832 398.105 202.361C398.05 202.008 397.966 201.66 397.853 201.321C396.275 196.866 375.763 153.84 375.763 153.84C375.785 151.657 376.06 149.484 376.583 147.364C381.048 146.054 388.117 148.07 388.117 148.07C390.161 147.801 396.829 161.026 396.829 161.026C396.829 161.026 401.271 171.153 401.76 172.533C402.249 173.913 401.76 176.175 401.955 176.965C402.151 177.754 404.228 178.433 404.521 179.52C404.814 180.607 404.623 182.771 404.819 183.157C405.015 183.543 405.806 187.487 405.476 188.471Z" fill="black"/>
<path d="M403.897 187.682C403.571 188.666 403.068 194.371 403.068 194.371C402.77 198.552 400.07 200.41 397.816 201.204C396.8 201.567 395.736 201.778 394.659 201.832L391.488 204.582L376.844 215.336C376.844 215.336 371.386 205.269 372.867 205.214C374.348 205.158 382.888 198.004 382.888 198.004C385.5 196.61 388.117 191.965 389.332 189.577C389.262 189.292 389.209 189.004 389.174 188.713C388.647 184.258 377.603 167.2 377.603 167.2C377.603 167.2 373.333 162.187 371.67 152.901C371.624 152.688 371.591 152.469 371.549 152.246C371.502 151.957 371.474 151.665 371.466 151.373C371.265 147.801 373.873 146.5 376.965 146.193C378.579 146.065 380.203 146.115 381.807 146.342C383.405 146.543 384.988 146.853 386.543 147.271C387.865 147.094 391.125 152.581 393.262 156.469C394.412 158.578 395.241 160.222 395.241 160.222C395.241 160.222 399.683 170.354 400.172 171.729C400.661 173.104 400.172 175.376 400.367 176.161C400.563 176.946 402.64 177.634 402.933 178.721C403.227 179.808 403.036 181.972 403.231 182.358C403.427 182.744 404.228 186.697 403.897 187.682Z" fill="#F7CDDD"/>
<path opacity="0.1" d="M420.883 164.984C418.09 167.832 413.578 167.841 409.955 166.378C406.332 164.914 403.264 162.294 399.907 160.255C397.727 158.926 395.418 157.839 393.271 156.469C392.955 156.265 392.647 156.06 392.34 155.846C389.863 154.1 387.716 151.856 385.151 150.272C383.434 149.133 381.436 148.49 379.377 148.414C378.428 148.405 377.49 148.602 376.625 148.99C376.464 149.055 376.309 149.131 376.159 149.217C375.314 149.701 374.532 150.286 373.831 150.959C373.105 151.61 372.411 152.302 371.647 152.911C371.601 152.697 371.568 152.479 371.526 152.256C371.479 151.967 371.451 151.675 371.442 151.382C370.865 151.438 370.283 151.47 369.691 151.47C367.803 151.481 365.927 151.167 364.146 150.541C364.146 150.472 364.146 150.402 364.104 150.332C363.475 147.025 362.339 143.522 359.671 141.664C358.125 140.586 355.657 140.145 353.515 139.341C352.773 136.763 352.661 134.046 353.187 131.416C353.714 128.786 354.865 126.32 356.543 124.225C358.221 122.13 360.378 120.466 362.833 119.374C365.288 118.281 367.97 117.791 370.654 117.945C373.338 118.099 375.945 118.891 378.259 120.257C380.573 121.623 382.524 123.522 383.951 125.795C385.378 128.068 386.238 130.649 386.46 133.322C386.682 135.995 386.258 138.682 385.225 141.158C387.935 140.805 391.804 141.158 397.043 143.373C409.396 148.613 412.292 148.883 412.292 148.883L418.499 157.012C417.829 158.034 417.07 159.043 417 160.236C416.884 162.424 419.021 163.953 420.883 164.984Z" fill="black"/>
<path d="M359.69 140.08C362.358 141.938 363.494 145.436 364.127 148.739C364.323 149.77 364.509 150.857 365.142 151.675C366.539 153.505 369.407 152.99 371.256 151.675C373.104 150.36 374.562 148.367 376.625 147.438C379.363 146.203 382.585 147.104 385.15 148.706C387.716 150.309 389.863 152.553 392.34 154.281C394.738 155.967 397.411 157.17 399.906 158.689C403.264 160.729 406.332 163.363 409.955 164.812C413.578 166.262 418.104 166.257 420.879 163.419C419.016 162.387 416.879 160.864 417.023 158.652C417.168 156.441 419.747 154.792 419.575 152.525C419.403 150.258 416.73 149.371 414.812 148.256C410.807 145.933 409.098 140.823 408.241 136.108C407.575 132.42 407.026 128.299 404.265 125.93C402.481 124.406 400.074 123.909 398.277 122.399C396.577 120.964 395.632 118.794 394.552 116.792C392.768 113.461 390.426 110.363 387.33 108.37C384.233 106.377 380.294 105.583 376.895 106.949C375.591 107.464 374.404 108.263 373.118 108.807C369.915 110.2 366.25 110.001 363.079 111.455C359.173 113.248 356.635 117.206 354.311 120.964C352.346 124.183 348.449 129.86 349.553 134.041C350.651 138.291 356.793 138.064 359.69 140.08Z" fill="#4C3E42"/>
<g opacity="0.1">
<path opacity="0.1" d="M419.57 152.269C419.556 152.097 419.526 151.926 419.482 151.758C418.774 152.869 417.894 153.946 417.81 155.247C417.792 155.548 417.817 155.85 417.885 156.144C418.672 154.894 419.682 153.719 419.57 152.269Z" fill="black"/>
<path opacity="0.1" d="M410.742 161.421C407.119 159.972 404.055 157.338 400.698 155.298C398.198 153.779 395.525 152.576 393.127 150.89C390.65 149.143 388.503 146.899 385.937 145.315C383.372 143.731 380.154 142.811 377.412 144.042C375.349 144.971 373.896 146.946 372.043 148.284C370.19 149.622 367.349 150.142 365.929 148.284C365.296 147.466 365.11 146.379 364.914 145.348C364.285 142.045 363.145 138.547 360.481 136.689C357.58 134.668 351.438 134.896 350.326 130.65C350.14 129.89 350.091 129.104 350.181 128.327C349.469 130.222 349.101 132.127 349.534 133.785C350.652 138.05 356.793 137.822 359.69 139.824C362.358 141.682 363.494 145.185 364.127 148.488C364.323 149.519 364.509 150.606 365.137 151.424C366.534 153.254 369.403 152.739 371.256 151.401C373.109 150.063 374.557 148.093 376.625 147.164C379.363 145.933 382.585 146.834 385.15 148.437C387.716 150.04 389.863 152.283 392.34 154.011C394.738 155.702 397.411 156.901 399.906 158.42C403.264 160.464 406.332 163.098 409.955 164.547C413.578 165.997 418.104 165.987 420.879 163.154C420.161 162.769 419.48 162.32 418.844 161.811C416.32 162.736 413.307 162.448 410.742 161.421Z" fill="black"/>
</g>
<path d="M328.329 193.196L365.58 179.315C366.016 179.152 366.479 179.076 366.944 179.092C367.409 179.108 367.866 179.216 368.29 179.408C368.713 179.6 369.095 179.874 369.412 180.214C369.729 180.553 369.976 180.952 370.139 181.387C370.301 181.822 370.376 182.285 370.36 182.749C370.343 183.213 370.235 183.669 370.042 184.091C369.849 184.513 369.574 184.894 369.233 185.21C368.893 185.526 368.493 185.773 368.057 185.935L330.806 199.82L322.825 199.021L328.329 193.196Z" fill="#5C5C8E"/>
<path opacity="0.1" d="M369.007 180.272C369.336 181.151 369.301 182.125 368.911 182.978C368.52 183.832 367.806 184.496 366.926 184.825L329.675 198.705L323.677 198.106L322.816 199.035L330.797 199.834L368.048 185.949C368.484 185.787 368.883 185.54 369.224 185.224C369.565 184.908 369.839 184.527 370.033 184.105C370.226 183.683 370.334 183.227 370.35 182.763C370.367 182.299 370.292 181.836 370.129 181.401C369.856 180.669 369.347 180.048 368.681 179.636C368.809 179.837 368.918 180.05 369.007 180.272Z" fill="white"/>
<path d="M328.329 193.196L330.811 199.82L324.259 199.165L322.825 199.021L324.786 196.949L328.329 193.196Z" fill="#EFC8C4"/>
<path d="M324.781 196.949C324.935 197.062 325.065 197.204 325.163 197.367C325.224 197.464 325.257 197.576 325.257 197.69C325.257 197.805 325.224 197.917 325.163 198.013C325.055 198.116 324.933 198.202 324.799 198.269C324.648 198.368 324.522 198.5 324.43 198.656C324.338 198.811 324.283 198.985 324.269 199.165L322.834 199.021L324.781 196.949Z" fill="#727A9C"/>
<path d="M295.814 121.419L289.532 118.362C289.443 118.319 289.363 118.258 289.297 118.184C289.231 118.109 289.18 118.022 289.147 117.928C289.115 117.834 289.101 117.735 289.108 117.635C289.114 117.536 289.139 117.439 289.183 117.35L289.849 115.984C289.892 115.894 289.953 115.814 290.027 115.748C290.102 115.681 290.189 115.631 290.283 115.598C290.378 115.566 290.478 115.552 290.578 115.559C290.677 115.565 290.775 115.591 290.864 115.636L295.097 117.693L299.515 108.653C299.604 108.473 299.76 108.335 299.95 108.269C300.14 108.202 300.349 108.214 300.531 108.3L301.9 108.969C301.99 109.012 302.07 109.073 302.136 109.147C302.203 109.222 302.254 109.309 302.286 109.403C302.319 109.497 302.332 109.597 302.326 109.696C302.319 109.796 302.293 109.893 302.249 109.982L296.829 121.071C296.785 121.16 296.724 121.24 296.649 121.306C296.575 121.372 296.488 121.422 296.394 121.455C296.299 121.487 296.2 121.501 296.1 121.494C296.001 121.488 295.903 121.463 295.814 121.419Z" fill="#3ACC6C"/>
<path d="M309.536 160.52L303.255 157.463C303.165 157.419 303.085 157.359 303.019 157.284C302.953 157.21 302.902 157.123 302.87 157.029C302.837 156.935 302.824 156.835 302.83 156.736C302.836 156.637 302.862 156.54 302.905 156.45L303.571 155.085C303.66 154.904 303.818 154.766 304.009 154.7C304.2 154.635 304.409 154.648 304.591 154.736L308.819 156.794L313.233 147.745C313.322 147.564 313.478 147.426 313.668 147.36C313.858 147.294 314.067 147.305 314.248 147.392L315.613 148.061C315.703 148.104 315.783 148.164 315.85 148.239C315.916 148.313 315.967 148.4 316 148.494C316.033 148.588 316.047 148.687 316.041 148.787C316.035 148.886 316.01 148.984 315.966 149.073L310.546 160.162C310.456 160.342 310.299 160.479 310.108 160.545C309.917 160.61 309.708 160.598 309.527 160.511L309.536 160.52Z" fill="#3ACC6C"/>
<path d="M303.376 141.246L297.094 138.189C296.913 138.101 296.775 137.945 296.708 137.755C296.642 137.566 296.654 137.358 296.74 137.176L297.411 135.811C297.454 135.721 297.515 135.641 297.589 135.574C297.664 135.508 297.751 135.457 297.845 135.425C297.94 135.392 298.04 135.379 298.139 135.385C298.239 135.392 298.336 135.418 298.426 135.462L302.659 137.52L307.077 128.466C307.121 128.377 307.182 128.297 307.257 128.231C307.331 128.165 307.418 128.115 307.513 128.082C307.607 128.05 307.707 128.036 307.806 128.043C307.906 128.049 308.003 128.074 308.093 128.118L309.461 128.782C309.642 128.872 309.78 129.029 309.845 129.219C309.91 129.41 309.898 129.618 309.811 129.799L304.386 140.897C304.342 140.987 304.281 141.067 304.207 141.133C304.132 141.198 304.045 141.249 303.951 141.281C303.857 141.314 303.757 141.327 303.657 141.321C303.558 141.315 303.461 141.289 303.371 141.246H303.376Z" fill="#3ACC6C"/>
<path d="M315.496 178.172L309.215 175.116C309.125 175.072 309.045 175.011 308.979 174.937C308.913 174.862 308.862 174.776 308.83 174.682C308.797 174.588 308.784 174.488 308.79 174.389C308.796 174.29 308.822 174.192 308.865 174.103L309.531 172.737C309.575 172.648 309.636 172.568 309.711 172.502C309.785 172.436 309.872 172.386 309.967 172.353C310.061 172.321 310.161 172.307 310.26 172.314C310.359 172.32 310.457 172.345 310.546 172.389L314.779 174.447L319.198 165.407C319.287 165.226 319.444 165.088 319.635 165.022C319.826 164.955 320.035 164.967 320.218 165.054L321.582 165.723C321.672 165.766 321.753 165.826 321.819 165.901C321.885 165.975 321.936 166.062 321.969 166.156C322.001 166.25 322.015 166.35 322.008 166.45C322.002 166.549 321.976 166.646 321.931 166.735L316.516 177.824C316.426 178.004 316.268 178.141 316.077 178.207C315.887 178.272 315.678 178.259 315.496 178.172Z" fill="#3ACC6C"/>
<path d="M80.6575 298.192C80.6575 298.192 83.428 301.806 79.3816 307.26C75.3352 312.714 71.992 317.322 73.3284 320.732C73.3284 320.732 79.4375 310.6 84.4058 310.461C89.3742 310.321 86.124 304.287 80.6575 298.192Z" fill="#3ACC6C"/>
<path opacity="0.1" d="M80.6575 298.192C80.9 298.541 81.0913 298.923 81.2255 299.326C86.0728 305.012 88.6757 310.317 83.9961 310.475C79.6517 310.595 74.4412 318.344 73.198 320.3C73.2355 320.458 73.2837 320.613 73.3423 320.764C73.3423 320.764 79.4515 310.633 84.4198 310.493C89.3881 310.354 86.124 304.287 80.6575 298.192Z" fill="black"/>
<path d="M85.8074 302.8C85.8074 304.069 85.663 305.123 85.4861 305.123C85.3092 305.123 85.1695 304.092 85.1695 302.8C85.1695 301.509 85.3464 302.127 85.5234 302.127C85.7003 302.127 85.8074 301.528 85.8074 302.8Z" fill="#FFD037"/>
<path d="M87.5721 304.315C86.4546 304.923 85.4768 305.295 85.393 305.137C85.3092 304.979 86.1473 304.366 87.2555 303.743C88.3637 303.121 87.9307 303.576 88.0145 303.743C88.0983 303.911 88.6943 303.706 87.5721 304.315Z" fill="#FFD037"/>
<path d="M66.0272 298.192C66.0272 298.192 63.2613 301.806 67.3077 307.26C71.3541 312.714 74.6927 317.322 73.361 320.732C73.361 320.732 67.2565 310.6 62.2835 310.461C57.3105 310.321 60.5607 304.287 66.0272 298.192Z" fill="#3ACC6C"/>
<path opacity="0.1" d="M66.0272 298.192C65.7874 298.542 65.5978 298.923 65.4637 299.326C60.6118 305.012 58.0136 310.317 62.6932 310.475C67.0329 310.595 72.2434 318.344 73.4913 320.3C73.4523 320.458 73.4025 320.613 73.3423 320.764C73.3423 320.764 67.2378 310.591 62.2555 310.451C57.2732 310.312 60.5606 304.287 66.0272 298.192Z" fill="black"/>
<path d="M60.8818 302.8C60.8818 304.069 61.0215 305.123 61.1985 305.123C61.3754 305.123 61.5198 304.092 61.5198 302.8C61.5198 301.509 61.3428 302.127 61.1659 302.127C60.9889 302.127 60.8818 301.528 60.8818 302.8Z" fill="#FFD037"/>
<path d="M59.1125 304.315C60.2347 304.923 61.2079 305.295 61.2917 305.137C61.3755 304.979 60.5373 304.366 59.4291 303.743C58.3209 303.121 58.7493 303.576 58.6655 303.743C58.5817 303.911 57.995 303.706 59.1125 304.315Z" fill="#FFD037"/>
<path opacity="0.1" d="M73.3469 348.363C89.3399 348.363 102.305 346.379 102.305 343.931C102.305 341.483 89.3399 339.499 73.3469 339.499C57.3539 339.499 44.389 341.483 44.389 343.931C44.389 346.379 57.3539 348.363 73.3469 348.363Z" fill="#6C63FF"/>
<path d="M88.2473 315.854L88.1076 316.983L87.9167 318.576L87.8329 319.24L87.642 320.834L87.5535 321.498L87.3626 323.092L85.1462 341.209C84.946 342.825 82.2965 344.089 79.0929 344.089H67.5871C64.3881 344.089 61.7433 342.825 61.5338 341.209L59.3174 323.092L59.1218 321.498L59.0427 320.834L58.8424 319.24L58.7633 318.576L58.5677 316.983L58.428 315.854C58.3209 314.925 59.7504 314.163 61.5617 314.163H85.1183C86.9342 314.163 88.3637 314.939 88.2473 315.854Z" fill="#65617D"/>
<path d="M88.1122 316.983L87.9166 318.576H58.7725L58.5816 316.983H88.1122Z" fill="#9D9CB5"/>
<path d="M87.8375 319.241L87.642 320.834H59.052L58.8564 319.241H87.8375Z" fill="#9D9CB5"/>
<path d="M87.5582 321.498L87.3626 323.092H59.3267L59.1311 321.498H87.5582Z" fill="#9D9CB5"/>
</g>
<defs>
<linearGradient id="paint0_linear" x1="399.441" y1="327.983" x2="399.441" y2="103.79" gradientUnits="userSpaceOnUse">
<stop stop-color="#808080" stop-opacity="0.25"/>
<stop offset="0.54" stop-color="#808080" stop-opacity="0.12"/>
<stop offset="1" stop-color="#808080" stop-opacity="0.1"/>
</linearGradient>
<clipPath id="clip0">
<rect width="538" height="370" fill="white" transform="translate(6.10352e-05 0.140594)"/>
</clipPath>
</defs>
</svg>
