<svg width="453" height="370" viewBox="0 0 453 370" fill="none" xmlns="http://www.w3.org/2000/svg">
<g clip-path="url(#clip0)">
<path opacity="0.1" d="M274.036 369.142C299.608 369.142 320.338 365.666 320.338 361.379C320.338 357.091 299.608 353.615 274.036 353.615C248.464 353.615 227.734 357.091 227.734 361.379C227.734 365.666 248.464 369.142 274.036 369.142Z" fill="#6C63FF"/>
<path opacity="0.1" d="M272.093 45.7729C253.137 61.8623 228.545 60.8226 207.017 52.453C185.49 44.0834 165.66 29.1766 144.669 18.5846C127.488 9.83726 108.981 3.98963 89.8944 1.27785C63.1411 -2.43476 33.2574 2.08795 14.6137 28.0979C-6.14723 57.0623 -4.54957 109.303 17.9043 135.907C29.3261 149.431 44.2809 156.068 57.3263 166.63C70.3717 177.192 82.4386 194.724 81.3302 215.106C80.3041 233.977 68.3411 248.463 55.9754 257.561C46.4111 264.579 34.6343 272.247 33.4609 286.789C32.3439 300.86 42.2459 311.885 51.7063 318.158C82.5512 338.614 120.549 338.415 151.29 317.643C162.257 310.23 172.332 300.375 183.832 294.596C214.018 279.434 247.288 294.696 279.25 300.28C306.306 305.006 334.051 302.558 360.41 293.119C376.24 287.452 392.13 278.788 403.253 262.647C411.271 251.006 416.268 236.273 420.957 221.726C425.962 206.211 430.771 190.588 435.383 174.857C438.15 165.413 440.878 155.795 441.592 145.684C442.891 127.372 437.427 109.295 429.993 93.8203C412.358 57.1013 382.626 31.3037 350.443 24.7492C318.26 18.1947 284.16 30.9961 259.186 59.0031" fill="#6C63FF"/>
<g opacity="0.35">
<path opacity="0.2" d="M216.914 88.5339V85.6531H171.539C169.452 85.6531 170.725 88.5513 170.725 88.5513H146.071V153.165H254.314V88.5339H216.914Z" fill="#6C63FF"/>
</g>
<path d="M360.842 136.729C360.842 136.729 374.485 112.547 395.047 105.581C403.684 102.713 411.157 97.1191 416.345 89.6387C418.781 86.0704 420.884 82.2855 422.627 78.3319" stroke="#535461" stroke-width="2" stroke-miterlimit="10"/>
<path d="M435.53 73.8612C433.192 76.1355 422.289 78.4879 422.289 78.4879C422.289 78.4879 424.961 67.6576 427.303 65.3789C428.427 64.2874 429.939 63.6874 431.505 63.711C433.072 63.7346 434.564 64.3797 435.655 65.5045C436.746 66.6293 437.346 68.1417 437.322 69.7089C437.299 71.276 436.654 72.7697 435.53 73.8612Z" fill="#6C63FF"/>
<path d="M429.364 93.451C426.165 94.0878 415.734 90.1326 415.734 90.1326C415.734 90.1326 423.865 82.4951 427.065 81.8583C427.826 81.7072 428.609 81.7076 429.37 81.8593C430.13 82.0111 430.853 82.3112 431.498 82.7427C432.143 83.1741 432.696 83.7284 433.127 84.3738C433.557 85.0193 433.857 85.7432 434.008 86.5044C434.159 87.2656 434.158 88.0491 434.007 88.8102C433.855 89.5712 433.555 90.2949 433.124 90.94C432.693 91.585 432.139 92.1388 431.494 92.5696C430.849 93.0004 430.125 93.2999 429.364 93.451Z" fill="#6C63FF"/>
<path d="M406.906 114.678C403.823 113.613 396.818 104.931 396.818 104.931C396.818 104.931 407.69 102.44 410.772 103.51C411.505 103.764 412.181 104.16 412.761 104.675C413.341 105.191 413.814 105.815 414.153 106.513C414.491 107.212 414.689 107.97 414.735 108.744C414.781 109.519 414.674 110.295 414.42 111.028C414.166 111.762 413.771 112.438 413.256 113.018C412.741 113.598 412.116 114.072 411.419 114.41C410.721 114.749 409.963 114.947 409.189 114.993C408.415 115.039 407.639 114.932 406.906 114.678Z" fill="#6C63FF"/>
<path d="M386.301 126.899C383.084 126.375 374.71 119.01 374.71 119.01C374.71 119.01 385.006 114.722 388.228 115.25C388.993 115.377 389.726 115.653 390.385 116.063C391.043 116.473 391.615 117.009 392.066 117.64C392.518 118.27 392.841 118.984 393.017 119.74C393.193 120.496 393.219 121.279 393.092 122.045C392.966 122.811 392.69 123.544 392.28 124.203C391.87 124.862 391.335 125.434 390.704 125.886C390.073 126.338 389.36 126.661 388.604 126.837C387.849 127.013 387.066 127.039 386.301 126.912V126.899Z" fill="#6C63FF"/>
<path d="M406.642 81.6806C406.642 84.947 412.543 94.4127 412.543 94.4127C412.543 94.4127 418.458 84.9513 418.458 81.6849C418.479 80.8952 418.342 80.1092 418.055 79.3733C417.767 78.6375 417.336 77.9667 416.785 77.4005C416.234 76.8344 415.576 76.3844 414.848 76.0771C414.121 75.7699 413.339 75.6116 412.55 75.6116C411.76 75.6116 410.979 75.7699 410.251 76.0771C409.524 76.3844 408.865 76.8344 408.315 77.4005C407.764 77.9667 407.332 78.6375 407.045 79.3733C406.757 80.1092 406.62 80.8952 406.642 81.6849V81.6806Z" fill="#6C63FF"/>
<path d="M382.729 96.2798C383.703 99.3946 392.168 106.677 392.168 106.677C392.168 106.677 394.978 95.8769 394.004 92.7621C393.802 91.9877 393.445 91.2623 392.955 90.63C392.465 89.9977 391.851 89.4716 391.151 89.0837C390.452 88.6957 389.681 88.454 388.885 88.3732C388.089 88.2924 387.285 88.3742 386.522 88.6135C385.759 88.8529 385.052 89.2449 384.445 89.7658C383.838 90.2866 383.342 90.9255 382.989 91.6435C382.636 92.3616 382.433 93.144 382.391 93.9432C382.349 94.7424 382.47 95.5417 382.746 96.2928L382.729 96.2798Z" fill="#6C63FF"/>
<path d="M361.427 113.66C361.86 116.896 368.978 125.491 368.978 125.491C368.978 125.491 373.572 115.324 373.139 112.088C373.083 111.281 372.862 110.494 372.491 109.776C372.119 109.058 371.604 108.423 370.978 107.912C370.351 107.401 369.627 107.024 368.849 106.804C368.071 106.585 367.256 106.527 366.455 106.635C365.654 106.742 364.884 107.013 364.191 107.431C363.499 107.848 362.9 108.404 362.431 109.062C361.961 109.721 361.632 110.468 361.463 111.259C361.294 112.05 361.289 112.867 361.448 113.66H361.427Z" fill="#6C63FF"/>
<path opacity="0.25" d="M435.53 73.8612C433.192 76.1355 422.289 78.4879 422.289 78.4879C422.289 78.4879 424.961 67.6576 427.303 65.3789C428.427 64.2874 429.939 63.6874 431.505 63.711C433.072 63.7346 434.564 64.3797 435.655 65.5045C436.746 66.6293 437.346 68.1417 437.322 69.7089C437.299 71.276 436.654 72.7697 435.53 73.8612Z" fill="black"/>
<path opacity="0.25" d="M429.364 93.451C426.165 94.0878 415.734 90.1326 415.734 90.1326C415.734 90.1326 423.865 82.4951 427.065 81.8583C427.826 81.7072 428.609 81.7076 429.37 81.8593C430.13 82.0111 430.853 82.3112 431.498 82.7427C432.143 83.1741 432.696 83.7284 433.127 84.3738C433.557 85.0193 433.857 85.7432 434.008 86.5044C434.159 87.2656 434.158 88.0491 434.007 88.8102C433.855 89.5712 433.555 90.2949 433.124 90.94C432.693 91.585 432.139 92.1388 431.494 92.5696C430.849 93.0004 430.125 93.2999 429.364 93.451Z" fill="black"/>
<path opacity="0.25" d="M406.906 114.678C403.823 113.613 396.818 104.931 396.818 104.931C396.818 104.931 407.69 102.44 410.772 103.51C411.505 103.764 412.181 104.16 412.761 104.675C413.341 105.191 413.814 105.815 414.153 106.513C414.491 107.212 414.689 107.97 414.735 108.744C414.781 109.519 414.674 110.295 414.42 111.028C414.166 111.762 413.771 112.438 413.256 113.018C412.741 113.598 412.116 114.072 411.419 114.41C410.721 114.749 409.963 114.947 409.189 114.993C408.415 115.039 407.639 114.932 406.906 114.678Z" fill="black"/>
<path opacity="0.25" d="M386.301 126.899C383.084 126.375 374.71 119.01 374.71 119.01C374.71 119.01 385.006 114.722 388.228 115.25C388.993 115.377 389.726 115.653 390.385 116.063C391.043 116.473 391.615 117.009 392.066 117.64C392.518 118.27 392.841 118.984 393.017 119.74C393.193 120.496 393.219 121.279 393.092 122.045C392.966 122.811 392.69 123.544 392.28 124.203C391.87 124.862 391.335 125.434 390.704 125.886C390.073 126.338 389.36 126.661 388.604 126.837C387.849 127.013 387.066 127.039 386.301 126.912V126.899Z" fill="black"/>
<path opacity="0.25" d="M406.642 81.6806C406.642 84.947 412.543 94.4127 412.543 94.4127C412.543 94.4127 418.458 84.9513 418.458 81.6849C418.479 80.8952 418.342 80.1092 418.055 79.3733C417.767 78.6375 417.336 77.9667 416.785 77.4005C416.234 76.8344 415.576 76.3844 414.848 76.0771C414.121 75.7699 413.339 75.6116 412.55 75.6116C411.76 75.6116 410.979 75.7699 410.251 76.0771C409.524 76.3844 408.865 76.8344 408.315 77.4005C407.764 77.9667 407.332 78.6375 407.045 79.3733C406.757 80.1092 406.62 80.8952 406.642 81.6849V81.6806Z" fill="black"/>
<path opacity="0.25" d="M382.729 96.2798C383.703 99.3946 392.168 106.677 392.168 106.677C392.168 106.677 394.978 95.8769 394.004 92.7621C393.802 91.9877 393.445 91.2623 392.955 90.63C392.465 89.9977 391.851 89.4716 391.151 89.0837C390.452 88.6957 389.681 88.454 388.885 88.3732C388.089 88.2924 387.285 88.3742 386.522 88.6135C385.759 88.8529 385.052 89.2449 384.445 89.7658C383.838 90.2866 383.342 90.9255 382.989 91.6435C382.636 92.3616 382.433 93.144 382.391 93.9432C382.349 94.7424 382.47 95.5417 382.746 96.2928L382.729 96.2798Z" fill="black"/>
<path opacity="0.25" d="M361.427 113.66C361.86 116.896 368.978 125.491 368.978 125.491C368.978 125.491 373.572 115.324 373.139 112.088C373.083 111.281 372.862 110.494 372.491 109.776C372.119 109.058 371.604 108.423 370.978 107.912C370.351 107.401 369.627 107.024 368.849 106.804C368.071 106.585 367.256 106.527 366.455 106.635C365.654 106.742 364.884 107.013 364.191 107.431C363.499 107.848 362.9 108.404 362.431 109.062C361.961 109.721 361.632 110.468 361.463 111.259C361.294 112.05 361.289 112.867 361.448 113.66H361.427Z" fill="black"/>
<path d="M361.63 136.248C361.63 136.248 364.306 108.609 380.248 93.9101C386.983 87.7888 391.549 79.6447 393.259 70.7031C394.041 66.4519 394.431 62.1377 394.423 57.8151" stroke="#535461" stroke-width="2" stroke-miterlimit="10"/>
<path d="M404.451 48.4923C403.23 51.5248 394.216 58.0922 394.216 58.0922C394.216 58.0922 392.272 47.0974 393.493 44.0649C393.783 43.3449 394.212 42.6892 394.755 42.1351C395.298 41.581 395.945 41.1394 396.659 40.8354C397.373 40.5315 398.139 40.3713 398.915 40.3638C399.691 40.3563 400.461 40.5018 401.18 40.792C401.9 41.0821 402.555 41.5112 403.109 42.0548C403.663 42.5983 404.104 43.2457 404.408 43.96C404.711 44.6742 404.872 45.4413 404.879 46.2175C404.887 46.9936 404.741 47.7637 404.451 48.4836V48.4923Z" fill="#6C63FF"/>
<path d="M406.75 68.9139C404.083 70.7941 392.947 71.4049 392.947 71.4049C392.947 71.4049 397.277 61.1248 399.952 59.249C400.587 58.8024 401.303 58.4852 402.059 58.3155C402.816 58.1457 403.599 58.1268 404.363 58.2597C405.127 58.3927 405.858 58.6749 406.513 59.0903C407.168 59.5057 407.735 60.0461 408.181 60.6808C408.627 61.3154 408.944 62.0317 409.114 62.7889C409.284 63.5461 409.303 64.3293 409.17 65.0939C409.037 65.8584 408.755 66.5892 408.34 67.2447C407.925 67.9001 407.384 68.4673 406.75 68.9139Z" fill="#6C63FF"/>
<path d="M394.809 97.4148C391.557 97.6877 381.638 92.5931 381.638 92.5931C381.638 92.5931 390.57 85.9087 393.822 85.6358C394.595 85.5709 395.373 85.659 396.112 85.8951C396.851 86.1312 397.536 86.5105 398.128 87.0116C398.721 87.5126 399.209 88.1255 399.564 88.8152C399.92 89.5049 400.137 90.258 400.201 91.0314C400.266 91.8048 400.178 92.5835 399.942 93.3228C399.706 94.0622 399.327 94.7478 398.826 95.3406C398.326 95.9333 397.713 96.4216 397.024 96.7775C396.334 97.1334 395.582 97.3499 394.809 97.4148Z" fill="#6C63FF"/>
<path d="M380.923 116.94C377.767 117.763 367.125 114.414 367.125 114.414C367.125 114.414 374.801 106.317 377.949 105.498C378.7 105.304 379.482 105.259 380.25 105.366C381.018 105.474 381.757 105.731 382.426 106.125C383.095 106.518 383.679 107.04 384.146 107.659C384.614 108.279 384.954 108.984 385.149 109.735C385.344 110.487 385.389 111.269 385.281 112.037C385.174 112.806 384.916 113.546 384.523 114.215C384.13 114.884 383.609 115.469 382.99 115.936C382.371 116.404 381.666 116.745 380.915 116.94H380.923Z" fill="#6C63FF"/>
<path d="M381.205 67.3543C382.525 70.3391 391.756 76.599 391.756 76.599C391.756 76.599 393.328 65.5521 392.007 62.5673C391.376 61.1311 390.2 60.0048 388.738 59.4361C387.277 58.8674 385.649 58.9029 384.214 59.5348C382.779 60.1667 381.653 61.3433 381.085 62.8057C380.516 64.268 380.552 65.8964 381.183 67.3326L381.205 67.3543Z" fill="#6C63FF"/>
<path d="M365.254 90.4184C367.419 92.8704 378.087 96.0848 378.087 96.0848C378.087 96.0848 376.282 85.0726 374.13 82.6163C373.097 81.4386 371.638 80.7199 370.075 80.6184C368.512 80.5168 366.972 81.0407 365.795 82.0748C364.618 83.1088 363.9 84.5683 363.799 86.1323C363.697 87.6962 364.221 89.2364 365.254 90.4141V90.4184Z" fill="#6C63FF"/>
<path d="M352.819 114.921C354.551 117.702 364.509 122.675 364.509 122.675C364.509 122.675 364.618 111.516 362.886 108.735C362.049 107.434 360.737 106.514 359.23 106.17C357.723 105.827 356.142 106.087 354.825 106.897C353.508 107.706 352.56 108.999 352.184 110.498C351.808 111.998 352.035 113.586 352.815 114.921H352.819Z" fill="#6C63FF"/>
<path d="M66.4567 248.055C66.4567 248.055 49.5709 227.118 50.6316 206.107C51.1361 197.299 48.7722 188.565 43.8946 181.215C41.551 177.745 38.8944 174.496 35.9583 171.511" stroke="#535461" stroke-width="2" stroke-miterlimit="10"/>
<path d="M36.5515 158.268C37.7638 161.192 35.993 171.862 35.993 171.862C35.993 171.862 27.195 165.581 25.9827 162.656C25.4016 161.253 25.4016 159.676 25.9826 158.273C26.5635 156.869 27.6779 155.754 29.0806 155.173C30.4833 154.591 32.0593 154.591 33.462 155.173C34.8647 155.754 35.9791 156.869 36.5602 158.272L36.5515 158.268Z" fill="#6C63FF"/>
<path d="M52.0129 170.835C51.4413 173.946 44.1545 181.93 44.1545 181.93C44.1545 181.93 40.1668 171.862 40.7556 168.76C40.8828 168.012 41.1573 167.297 41.5631 166.656C41.9688 166.016 42.4978 165.462 43.1193 165.027C43.7407 164.592 44.4423 164.286 45.1833 164.125C45.9242 163.964 46.6897 163.951 47.4354 164.089C48.1811 164.226 48.8921 164.511 49.527 164.925C50.1619 165.34 50.7082 165.877 51.1341 166.504C51.5599 167.132 51.8569 167.838 52.0078 168.582C52.1587 169.325 52.1604 170.091 52.0129 170.835Z" fill="#6C63FF"/>
<path d="M63.071 198.656C61.0057 201.056 50.6837 204.266 50.6837 204.266C50.6837 204.266 52.3289 193.579 54.3942 191.179C55.4045 190.1 56.7926 189.454 58.2681 189.376C59.7436 189.297 61.1922 189.793 62.3109 190.759C63.4295 191.725 64.1315 193.086 64.2699 194.558C64.4083 196.03 63.9725 197.498 63.0536 198.656H63.071Z" fill="#6C63FF"/>
<path d="M66.7079 221.595C65.0799 224.306 55.4506 229.219 55.4506 229.219C55.4506 229.219 55.2645 218.389 56.8968 215.694C57.6878 214.411 58.9525 213.492 60.4164 213.136C61.8804 212.78 63.4256 213.016 64.7169 213.793C66.0082 214.569 66.9414 215.824 67.3141 217.284C67.6869 218.745 67.469 220.294 66.7079 221.595Z" fill="#6C63FF"/>
<path d="M33.2652 187.102C36.2051 188.268 46.8389 186.331 46.8389 186.331C46.8389 186.331 40.4309 177.624 37.4954 176.454C36.094 175.94 34.5474 175.993 33.1847 176.603C31.8221 177.212 30.7511 178.33 30.1998 179.718C29.6484 181.106 29.6603 182.654 30.2329 184.033C30.8054 185.413 31.8934 186.514 33.2652 187.102Z" fill="#6C63FF"/>
<path d="M37.8634 213.883C41.0154 214.117 50.584 209.088 50.584 209.088C50.584 209.088 41.864 202.694 38.712 202.46C37.9623 202.403 37.2088 202.494 36.4944 202.729C35.78 202.963 35.1188 203.336 34.5485 203.826C33.9782 204.316 33.51 204.914 33.1705 205.585C32.8311 206.257 32.6271 206.988 32.5703 207.738C32.5134 208.488 32.6048 209.242 32.8391 209.957C33.0735 210.672 33.4463 211.333 33.9362 211.904C34.4261 212.475 35.0235 212.943 35.6944 213.283C36.3652 213.622 37.0964 213.826 37.846 213.883H37.8634Z" fill="#6C63FF"/>
<path d="M45.8993 239.282C48.9647 240.049 59.2478 236.683 59.2478 236.683C59.2478 236.683 51.7314 228.933 48.666 228.179C47.1927 227.812 45.634 228.046 44.3328 228.828C43.0316 229.611 42.0945 230.879 41.7276 232.353C41.3607 233.827 41.5941 235.387 42.3764 236.689C43.1588 237.991 44.426 238.928 45.8993 239.295V239.282Z" fill="#6C63FF"/>
<path d="M347.97 80.7016H347.606C348.178 80.0517 348.472 79.4019 348.425 78.8258L345.134 75.5334L346.39 72.7175H342.16L342.943 70.5211H340.436L312.7 79.7658C312.7 79.7658 312.67 80.1514 312.7 80.7016H294.84V161.214H372.411V80.7016H347.97Z" fill="url(#paint0_linear)"/>
<path d="M371.818 80.9832H295.416V160.365H371.818V80.9832Z" fill="#F6F7F9"/>
<path opacity="0.1" d="M347.758 80.9832C344.138 86.316 319.961 93.3383 319.961 93.3383L320.113 87.7802H315.64C315.763 87.245 315.708 86.6844 315.485 86.1828C315.262 85.6812 314.882 85.2658 314.402 84.999C313.103 84.2842 312.977 81.9665 312.995 80.9832H347.758Z" fill="black"/>
<path d="M340.332 70.9456L313.016 80.043C313.016 80.043 312.705 83.5954 314.402 84.5181C314.88 84.7859 315.26 85.2015 315.483 85.7028C315.706 86.204 315.761 86.7641 315.64 87.2993H320.113L319.961 92.8574C319.961 92.8574 348.667 84.5181 348.204 79.116L344.965 75.8712L346.199 73.09H342.03L342.805 70.924L340.332 70.9456Z" fill="#9D9CB5"/>
<g opacity="0.35">
<path opacity="0.2" d="M357.695 106.716H309.54V108.067H357.695V106.716Z" fill="#6C63FF"/>
</g>
<g opacity="0.35">
<path opacity="0.2" d="M357.695 113.842H309.54V115.194H357.695V113.842Z" fill="#6C63FF"/>
</g>
<g opacity="0.35">
<path opacity="0.2" d="M357.695 120.964H309.54V122.316H357.695V120.964Z" fill="#6C63FF"/>
</g>
<g opacity="0.35">
<path opacity="0.2" d="M357.695 128.086H309.54V129.438H357.695V128.086Z" fill="#6C63FF"/>
</g>
<g opacity="0.35">
<path opacity="0.2" d="M357.695 135.208H309.54V136.56H357.695V135.208Z" fill="#6C63FF"/>
</g>
<g opacity="0.35">
<path opacity="0.2" d="M357.695 142.334H309.54V143.686H357.695V142.334Z" fill="#6C63FF"/>
</g>
<path d="M89.1055 74.1773H88.9236C90.2918 70.6683 91.5561 67.246 91.4998 66.5918C91.3786 65.2922 88.7764 68.1167 88.6552 67.4106C88.534 66.7045 88.6552 64.0272 87.4732 64.0272C86.2912 64.0272 85.5768 65.4178 84.8754 65.4178C84.1739 65.4178 81.3207 64.95 81.3207 64.95L77.688 74.1773H50.3243V160.165H118.231V74.1773H89.1055Z" fill="url(#paint1_linear)"/>
<path d="M117.456 74.6539H51.0863V159.589H117.456V74.6539Z" fill="#F6F7F9"/>
<path opacity="0.1" d="M88.9972 74.6539C87.5987 78.2886 86.0227 82.1181 85.6633 83.0322C84.9662 84.7651 84.5073 83.8423 83.6933 83.6127C82.8793 83.3831 81.8445 83.8423 81.3812 83.6127C80.9179 83.3831 78.1989 83.6127 78.1989 83.6127C78.2293 83.1873 78.2293 82.7602 78.1989 82.3347C78.1383 81.8755 75.0122 82.3347 75.0122 82.3347L77.9911 74.6539H88.9972Z" fill="black"/>
<path d="M81.3812 65.5435L75.0122 81.8756C75.0122 81.8756 78.1383 81.412 78.1945 81.8756C78.2272 82.2995 78.2272 82.7253 78.1945 83.1492C78.1945 83.1492 80.9179 82.9153 81.3812 83.1492C81.8445 83.3832 82.8836 82.9153 83.6933 83.1492C84.5029 83.3832 84.9662 84.3059 85.6633 82.5687C86.3604 80.8315 91.4521 68.4374 91.3352 67.1637C91.2183 65.8901 88.6725 68.6713 88.5555 67.9738C88.4386 67.2764 88.5556 64.6338 87.3995 64.6338C86.2435 64.6338 85.5464 66.0071 84.8536 66.0071C84.1609 66.0071 81.3812 65.5435 81.3812 65.5435Z" fill="#9D9CB5"/>
<g opacity="0.35">
<path opacity="0.2" d="M108.351 97.1982H60.196V98.5499H108.351V97.1982Z" fill="#6C63FF"/>
</g>
<g opacity="0.35">
<path opacity="0.2" d="M108.351 102.297H60.196V103.649H108.351V102.297Z" fill="#6C63FF"/>
</g>
<g opacity="0.35">
<path opacity="0.2" d="M108.351 107.392H60.196V108.743H108.351V107.392Z" fill="#6C63FF"/>
</g>
<g opacity="0.35">
<path opacity="0.2" d="M108.351 112.49H60.196V113.842H108.351V112.49Z" fill="#6C63FF"/>
</g>
<g opacity="0.35">
<path opacity="0.2" d="M108.351 117.585H60.196V118.937H108.351V117.585Z" fill="#6C63FF"/>
</g>
<g opacity="0.35">
<path opacity="0.2" d="M108.351 122.68H60.196V124.031H108.351V122.68Z" fill="#6C63FF"/>
</g>
<path d="M339.557 201.32H339.376C341.055 196.988 342.605 192.756 342.532 191.963C342.389 190.373 339.194 193.843 339.068 192.977C338.943 192.11 339.068 188.801 337.618 188.801C336.167 188.801 335.297 190.533 334.427 190.533C333.556 190.533 330.071 189.953 330.071 189.953L325.594 201.32H292.06V307.409H375.29V201.32H339.557Z" fill="url(#paint2_linear)"/>
<path d="M374.507 202.057H292.727V306.72H374.507V202.057Z" fill="#F6F7F9"/>
<path opacity="0.1" d="M339.397 202.057C337.691 206.501 335.778 211.154 335.332 212.272C334.466 214.412 333.907 213.268 332.907 212.987C331.907 212.705 330.625 213.268 330.054 212.987C329.482 212.705 326.131 212.987 326.131 212.987C326.168 212.463 326.168 211.938 326.131 211.414C326.057 210.847 322.208 211.414 322.208 211.414L325.858 202.057H339.397Z" fill="black"/>
<path d="M330.054 190.828L322.208 210.951C322.208 210.951 326.057 210.379 326.131 210.951C326.168 211.473 326.168 211.997 326.131 212.519C326.131 212.519 329.482 212.237 330.054 212.519C330.625 212.8 331.907 212.237 332.907 212.519C333.907 212.8 334.474 213.948 335.332 211.808C336.189 209.668 342.463 194.393 342.32 192.825C342.177 191.257 339.038 194.679 338.895 193.826C338.752 192.972 338.895 189.706 337.47 189.706C336.046 189.706 335.189 191.4 334.331 191.4C333.474 191.4 330.054 190.828 330.054 190.828Z" fill="#9D9CB5"/>
<g opacity="0.35">
<path opacity="0.2" d="M357.695 231.303H309.54V234.738H357.695V231.303Z" fill="#6C63FF"/>
</g>
<g opacity="0.35">
<path opacity="0.2" d="M357.695 253.617H309.54V257.053H357.695V253.617Z" fill="#6C63FF"/>
</g>
<g opacity="0.35">
<path opacity="0.2" d="M357.695 275.937H309.54V279.372H357.695V275.937Z" fill="#6C63FF"/>
</g>
<path d="M103.034 204.946V192.136H85.0615V204.946H47.5359V305.876H135.676V204.946H103.034Z" fill="url(#paint3_linear)"/>
<path d="M134.745 205.458H48.4668V305.217H134.745V205.458Z" fill="#F6F7F9"/>
<path opacity="0.1" d="M102.796 205.458H85.2001V219.047H102.796V205.458Z" fill="black"/>
<path d="M102.796 192.795H85.2001V218.584H102.796V192.795Z" fill="#9D9CB5"/>
<g opacity="0.35">
<path opacity="0.2" d="M115.681 229.587H67.5262V233.023H115.681V229.587Z" fill="#6C63FF"/>
</g>
<g opacity="0.35">
<path opacity="0.2" d="M115.681 236.419H67.5262V239.854H115.681V236.419Z" fill="#6C63FF"/>
</g>
<g opacity="0.35">
<path opacity="0.2" d="M115.681 243.255H67.5262V246.691H115.681V243.255Z" fill="#6C63FF"/>
</g>
<g opacity="0.35">
<path opacity="0.2" d="M115.681 250.087H67.5262V253.522H115.681V250.087Z" fill="#6C63FF"/>
</g>
<g opacity="0.35">
<path opacity="0.2" d="M115.686 257.694H102.796V268.117H115.686V257.694Z" fill="#6C63FF"/>
</g>
<g opacity="0.35">
<path opacity="0.2" d="M80.4157 270.586H67.5262V281.009H80.4157V270.586Z" fill="#6C63FF"/>
</g>
<path d="M226.816 204.786H226.695C228.098 199.297 229.154 194.926 229.154 194.926L223.171 197.742C223.171 197.742 218.923 192.11 217.351 193.05C215.78 193.99 212.329 196.334 212.329 196.334L207.748 193.986L205.995 204.786H169.82V282.716L172.145 284.107C174.063 283.418 177.219 282.248 177.219 282.248L175.769 286.277L176.747 286.858L178.397 285.363L179.008 288.218L180.969 289.392L184.065 287.421L183.199 290.739L186.104 292.472L194.551 289.297L192.005 296.003L193.681 297.008L197.504 296.336C197.504 296.336 197.331 297.675 197.223 299.126L201.059 301.422C202.63 300.811 204.111 300.209 204.111 300.209C204.111 300.209 203.96 301.674 203.89 303.112L206.462 304.654C208.493 303.467 211.078 301.851 211.078 301.851L208.913 305.88H257.795V204.786H226.816Z" fill="url(#paint4_linear)"/>
<path d="M256.834 205.458V305.217H208.891L211.03 301.245C211.03 301.245 208.497 302.835 206.505 304.008L203.986 302.484C204.055 301.067 204.206 299.62 204.206 299.62C204.206 299.62 202.752 300.214 201.21 300.816L197.448 298.55C197.556 297.12 197.721 295.799 197.721 295.799L193.975 296.462L192.334 295.47L194.828 288.85L186.546 291.987L183.692 290.254L184.524 286.979L181.493 288.924L179.57 287.767L178.973 284.952L177.354 286.433L176.392 285.857L177.817 281.884C177.817 281.884 174.721 283.037 172.838 283.717L170.56 282.348V205.458H256.834Z" fill="#F6F7F9"/>
<g opacity="0.35">
<path opacity="0.2" d="M237.77 236.419H189.615V239.854H237.77V236.419Z" fill="#6C63FF"/>
</g>
<g opacity="0.35">
<path opacity="0.2" d="M237.77 246.69H189.615V250.126H237.77V246.69Z" fill="#6C63FF"/>
</g>
<g opacity="0.35">
<path opacity="0.2" d="M237.77 256.958H189.615V260.393H237.77V256.958Z" fill="#6C63FF"/>
</g>
<g opacity="0.35">
<path opacity="0.2" d="M199.262 267.229H189.615V270.664H199.262V267.229Z" fill="#6C63FF"/>
</g>
<path opacity="0.1" d="M226.448 205.457C224.101 214.719 220.681 227.551 219.789 227.326C218.404 226.949 216.239 224.293 216.239 224.293C216.239 224.293 211.147 229.08 208.679 226.611C206.211 224.142 202.812 225.836 202.812 225.836L206.103 205.453L226.448 205.457Z" fill="black"/>
<path d="M207.752 194.822L202.812 225.398C202.812 225.398 206.207 223.7 208.675 226.174C211.143 228.647 216.239 223.847 216.239 223.847C216.239 223.847 218.404 226.499 219.789 226.88C221.175 227.261 228.743 195.749 228.743 195.749L222.876 198.53C222.876 198.53 218.711 192.968 217.165 193.895C215.62 194.822 212.242 197.14 212.242 197.14L207.752 194.822Z" fill="#9D9CB5"/>
<path d="M248.105 61.4193V58.4865H202.158C200.05 58.4865 201.34 61.4193 201.34 61.4193H176.375V126.808H285.96V61.3933L248.105 61.4193Z" fill="url(#paint5_linear)"/>
<path d="M285.302 61.7312H177.068V126.362H285.302V61.7312Z" fill="#F6F7F9"/>
<path opacity="0.1" d="M247.915 72.2712H204.968C204.968 72.2712 204.505 67.2893 206.012 66.3666C207.519 65.4438 201.726 62.1947 201.726 62.1947C201.661 62.0432 201.605 61.8885 201.557 61.7312H247.915V63.2388C247.915 63.2388 253.821 68.4503 247.915 72.2712Z" fill="black"/>
<path d="M202.535 58.8374H247.915V62.7753C247.915 62.7753 253.821 67.9738 247.915 71.8077H204.968C204.968 71.8077 204.505 66.8258 206.012 65.9031C207.519 64.9803 201.725 61.7312 201.725 61.7312C201.725 61.7312 200.453 58.8374 202.535 58.8374Z" fill="#9D9CB5"/>
<g opacity="0.35">
<path opacity="0.2" d="M272.014 82.0012H190.364V83.3528H272.014V82.0012Z" fill="#6C63FF"/>
</g>
<g opacity="0.35">
<path opacity="0.2" d="M239.138 87.0957H190.364V88.4473H239.138V87.0957Z" fill="#6C63FF"/>
</g>
<g opacity="0.35">
<path opacity="0.2" d="M272.014 92.1946H190.364V93.5462H272.014V92.1946Z" fill="#6C63FF"/>
</g>
<g opacity="0.35">
<path opacity="0.2" d="M272.014 97.2892H190.364V98.6408H272.014V97.2892Z" fill="#6C63FF"/>
</g>
<g opacity="0.35">
<path opacity="0.2" d="M272.014 102.384H190.364V103.735H272.014V102.384Z" fill="#6C63FF"/>
</g>
<path d="M305.6 359.992C304.825 356.691 304.348 353.797 304.348 353.797C304.348 353.797 304.526 350.206 302.915 347.511V346.615V339.982C303.372 338.781 303.931 337.622 304.586 336.517C305.781 334.428 304.586 326.787 304.586 326.787C304.586 326.787 300.161 316.013 301.24 309.181C302.318 302.349 292.147 278.835 292.147 278.835C292.21 276.566 292.531 274.312 293.104 272.116C293.21 271.654 293.253 271.181 293.234 270.708C293.234 270.651 293.234 270.595 293.234 270.534V270.591C293.082 266.085 289.523 257.638 289.523 257.638L290 241.535C290 241.535 292.273 232.039 288.566 219.299C287.268 214.849 286.441 211.293 285.917 208.546C285.856 208.234 285.8 207.935 285.748 207.649C293.381 206.484 299.209 205.514 299.209 205.514C299.209 205.514 294.78 186.972 291.792 183.732C288.805 180.492 286.41 170.302 286.41 170.302C286.41 170.302 284.852 157.215 287.367 153.407C289.883 149.599 290.233 142.98 290.233 142.98C290.233 142.98 295.975 138.812 296.693 136.958C297.412 135.104 298.607 130.937 298.607 128.727C298.607 126.518 297.888 124.555 298.131 123.399C298.373 122.242 296.455 117.841 297.412 115.753C297.661 115.111 297.79 114.43 297.793 113.742C297.795 113.722 297.795 113.702 297.793 113.682C297.793 113.682 297.793 113.682 297.793 113.66C297.799 111.836 297.63 110.015 297.286 108.223C297.286 108.223 294.689 105.932 291.61 105.191L291.485 104.693L291.16 103.393C290.977 103.27 290.788 103.157 290.593 103.055V102.583L290.541 100.703L291.441 96.4704C293.204 89.1058 283.397 88.0184 283.397 88.0184C282.809 86.884 281.819 86.0097 280.621 85.5665C278.647 84.869 280.292 96.6307 281.215 97.3801C281.912 97.9476 284.055 101.634 285.085 103.445L285.254 103.744C285.098 103.89 284.953 104.048 284.821 104.216L285.194 106.768L285.25 107.158C284.601 107.967 284.074 108.868 283.687 109.831C283.687 109.831 285.484 111.797 285.124 113.998C284.765 116.199 285.674 118.941 285.718 119.093C285.609 118.971 284.349 117.602 283.089 117.936C281.829 118.27 278.327 119.327 278.327 119.327C278.327 119.327 275.694 119.79 275.937 120.371C276.179 120.951 274.14 123.498 274.14 123.498L267.069 116.792C267 116.593 266.931 116.394 266.866 116.186C266.571 115.228 266.365 114.245 266.251 113.249C267.021 113.065 267.777 112.824 268.511 112.529C269.255 112.276 269.926 111.846 270.468 111.278C271.178 110.411 271.334 109.28 271.607 108.245C272.166 106.183 273.369 104.346 274.231 102.392C275.686 99.0919 276.176 95.446 275.642 91.8783C275.531 90.781 275.158 89.7263 274.556 88.8026C273.404 87.2127 271.308 86.5672 269.793 85.2979C268.277 84.0286 267.29 82.0965 265.515 81.1434C263.913 80.277 261.956 80.3853 260.151 80.6799C256.612 81.2627 253.213 82.4997 250.127 84.3275C249.097 84.9383 247.962 85.6271 246.776 85.4278C245.763 85.2459 245.018 84.4315 244.364 83.656C244.373 83.6222 244.383 83.589 244.395 83.5564L244.317 83.4654C243.568 85.1284 243.193 86.9354 243.217 88.7592C243.217 89.0408 243.217 89.3224 243.252 89.6257C243.252 89.7253 243.252 89.8249 243.252 89.9246C243.258 90.0053 243.258 90.0864 243.252 90.1672C243.252 90.2932 243.234 90.4186 243.2 90.5397C243.049 90.9023 242.824 91.2287 242.537 91.4971C242.321 91.74 242.129 92.0025 241.961 92.2812C241.992 92.1859 242.022 92.0906 242.057 91.9953C241.606 92.6525 241.352 93.4252 241.325 94.222C241.286 94.8041 241.478 95.3781 241.858 95.8206C242.21 96.1668 242.596 96.4773 243.009 96.7476C242.522 99.4653 242.879 102.267 244.032 104.775C245.186 107.284 247.08 109.378 249.461 110.775C249.543 110.974 249.621 111.178 249.703 111.381C250.604 113.764 251.283 116.537 251.002 119.097C250.976 119.288 250.95 119.474 250.915 119.66C250.824 119.755 250.738 119.855 250.66 119.955C250.66 119.955 238.97 120.067 236.238 117.576C233.506 115.085 229.31 123.641 229.31 123.641C229.31 123.641 225.123 124.456 224.288 123.641C223.452 122.827 218.546 123.529 218.546 123.529C218.546 123.529 215.555 120.631 211.251 120.864C209.616 119.621 207.813 118.618 205.895 117.884L205.761 117.836C204.919 117.532 204.02 117.418 203.128 117.503C203.128 117.503 197.387 112.737 195.716 110.207C194.045 107.678 186.065 98.2076 186.03 98.1642L186 97.731L185.909 96.3534C185.673 96.3907 185.434 96.4109 185.195 96.4141L185.034 95.9375C184.576 94.5936 184.009 93.2896 183.337 92.0386C183.337 92.0386 183.337 90.3058 183.844 89.8726C184.35 89.4394 183.636 83.0668 183.636 83.0668C183.636 83.0668 178.462 70.9629 173.829 79.9997C173.829 79.9997 165.07 85.8437 172.422 92.6495C172.422 92.6495 175.353 94.0747 175.769 95.2011C176.042 95.9332 177.038 97.9736 177.709 99.3339C177.821 99.5592 177.921 99.7671 178.007 99.9404L177.925 100.01L178.033 101.145L178.077 101.578C176.691 102.366 175.752 103.142 175.981 103.744C176.39 104.747 176.671 105.798 176.817 106.872C176.817 106.872 186.983 119.612 188.299 125.067C188.299 125.067 215.576 141.282 224.539 142.443L222.984 150.548C222.984 150.548 222.504 155.413 222.625 157.15C222.746 158.887 221.547 166.767 221.547 166.767C221.547 166.767 219.993 178.347 218.676 179.967C217.36 181.588 217.603 188.541 217.603 188.541C217.286 191.868 216.685 195.163 215.806 198.387C214.507 202.789 215.451 208.23 215.451 208.23C215.451 208.23 210.904 218.657 221.789 211.592C221.789 211.592 227.132 211.258 233.285 211.05C233.285 211.249 233.285 211.453 233.285 211.661C233.285 212.454 233.259 213.312 233.25 214.217C233.168 220.187 233.133 228.413 233.402 234.638C233.878 245.642 237.229 267.42 237.229 267.42V278.358C237.013 279.386 236.907 280.435 236.913 281.486C236.839 285.342 237.862 289.14 239.862 292.437L240.602 299.659C240.602 299.659 242.568 304.468 242.607 307.34C242.597 307.574 242.568 307.808 242.52 308.037C242.447 308.405 242.415 308.78 242.425 309.155C242.312 312.469 244.308 320.392 244.308 320.392C244.308 320.392 244.429 328.385 245.607 328.849C246.629 329.243 244.243 333.454 243.529 334.662C243.529 334.584 243.499 334.511 243.486 334.433C243.395 334.589 243.338 334.675 243.338 334.675C243.092 335.32 242.966 336.004 242.966 336.694C242.898 337.24 242.987 337.794 243.221 338.292C243.456 338.79 243.827 339.211 244.291 339.506C246.564 340.896 247.785 342.053 245.858 342.538C245.148 342.646 244.445 342.791 243.75 342.971C243.715 342.88 243.68 342.789 243.65 342.703C243.381 342.814 243.157 343.012 243.014 343.266C242.871 343.52 242.818 343.814 242.862 344.102C242.81 344.687 243.005 345.54 243.576 346.814C245.49 351.098 246.815 352.723 246.815 352.723L247.733 352.619C247.593 352.967 247.414 353.299 247.2 353.607C246.851 354.109 246.386 354.521 245.845 354.807C245.347 355.107 244.791 355.298 244.213 355.366C243.564 355.387 242.926 355.545 242.342 355.83C241.758 356.114 241.24 356.518 240.823 357.016C239.632 358.558 238.883 360.664 241.256 362.509L249.811 365.464C249.811 365.464 264.532 367.374 263.74 364.073C262.948 360.772 262.489 357.878 262.489 357.878C262.489 357.878 262.653 354.655 261.294 352.021C261.141 351.72 260.968 351.431 260.774 351.155L261.294 351.094C261.294 351.094 262.367 343.799 263.805 342.43C264.134 342.109 264.208 341.862 264.13 341.676C264.281 341.278 263.904 341.044 263.424 340.914L263.32 341.2C262.85 341.097 262.372 341.043 261.891 341.039C261.891 341.039 261.411 337.218 262.965 335.841C263.091 335.683 263.184 335.501 263.236 335.305C263.288 335.11 263.299 334.906 263.268 334.706C263.281 334.183 263.227 333.66 263.108 333.151C263.108 333.177 263.073 333.211 263.051 333.237C262.268 329.771 259.618 324.257 259.618 324.257C259.618 324.257 259.497 320.791 260.454 319.396C261.411 318.001 260.337 300.512 260.337 300.512C260.337 300.512 260.696 292.061 259.618 288.123C258.54 284.185 260.917 279.549 260.917 279.549C260.917 279.549 260.917 279.458 260.891 279.298L260.921 279.237C260.921 279.237 260.869 278.718 260.783 277.908C260.771 277.933 260.761 277.959 260.752 277.986C260.514 275.75 260.055 271.695 259.722 269.82C259.241 267.155 259.839 254.415 259.839 254.415L262.004 248.973L265.831 258.352L269.901 270.864C269.901 270.864 271.914 273.506 271.962 276.183C271.962 276.313 271.962 276.443 271.936 276.573C271.904 276.851 271.888 277.13 271.888 277.409C271.817 278.989 272.251 280.551 273.127 281.867C273.127 281.867 274.205 287.772 275.88 289.279C277.556 290.787 277.552 293.681 277.552 293.681C277.552 293.681 279.587 302.25 280.544 303.757C281.349 305.027 281.409 308.523 281.383 309.584C281.383 309.783 281.383 309.896 281.383 309.896C281.383 309.896 281.665 312.959 281.656 315.528C281.656 315.844 281.656 316.151 281.626 316.442V316.377C281.623 317.078 281.54 317.777 281.379 318.46C281.365 318.499 281.353 318.538 281.344 318.577C281.344 318.434 281.344 318.287 281.379 318.144C280.962 319.893 280.762 321.687 280.782 323.486C280.725 326.566 281.215 330.218 283.059 332.358C286.289 336.066 288.324 335.602 288.324 335.602C288.324 335.602 286.765 340.234 284.86 341.161C284.788 341.197 284.72 341.241 284.657 341.291C284.657 341.2 284.622 341.113 284.609 341.022C284.211 341.369 284.051 341.992 284.051 342.755C283.912 344.791 285.194 348.101 286.419 349.621C286.871 350.065 287.426 350.389 288.034 350.566C287.936 350.633 287.835 350.695 287.731 350.752C287.518 350.868 287.298 350.971 287.073 351.059C286.764 351.196 286.435 351.283 286.099 351.315C285.449 351.33 284.81 351.483 284.224 351.764C283.638 352.044 283.118 352.447 282.7 352.944C281.509 354.482 280.76 356.587 283.133 358.433L291.688 361.387C291.688 361.387 306.383 363.293 305.6 359.992Z" fill="url(#paint6_linear)"/>
<path d="M249.417 365.464L241.139 362.509C238.853 360.664 239.58 358.558 240.736 357.016C241.132 356.522 241.63 356.119 242.196 355.835C242.761 355.55 243.381 355.39 244.014 355.366C244.575 355.297 245.114 355.106 245.594 354.807C246.116 354.516 246.562 354.105 246.893 353.607C247.499 352.648 247.825 351.539 247.837 350.405C247.837 350.405 256.929 347.741 259.414 350.405C259.858 350.887 260.229 351.431 260.514 352.021C261.813 354.655 261.675 357.878 261.675 357.878C261.675 357.878 262.138 360.768 262.887 364.073C263.636 367.379 249.417 365.464 249.417 365.464Z" fill="#2D293D"/>
<path d="M289.93 361.383L281.652 358.428C279.37 356.583 280.098 354.477 281.249 352.94C281.645 352.445 282.142 352.041 282.708 351.756C283.273 351.471 283.894 351.312 284.527 351.289C284.855 351.257 285.175 351.171 285.475 351.033C285.693 350.945 285.906 350.842 286.111 350.726C288.428 349.452 288.367 346.324 288.367 346.324C288.367 346.324 297.46 343.66 299.945 346.324C300.278 346.684 300.568 347.081 300.811 347.507C302.37 350.202 302.196 353.797 302.196 353.797C302.196 353.797 302.66 356.691 303.413 359.992C304.166 363.293 289.93 361.383 289.93 361.383Z" fill="#2D293D"/>
<path opacity="0.1" d="M259.427 350.405C259.871 350.887 260.242 351.431 260.527 352.021L246.906 353.602C247.512 352.644 247.838 351.535 247.85 350.401C247.85 350.401 256.942 347.745 259.427 350.405Z" fill="black"/>
<path opacity="0.1" d="M300.815 347.507V350.059C298.698 353.55 288.45 352.788 285.475 351.033C285.693 350.945 285.906 350.842 286.111 350.726C288.428 349.452 288.367 346.324 288.367 346.324C288.367 346.324 297.46 343.66 299.945 346.324C300.279 346.684 300.571 347.081 300.815 347.507Z" fill="black"/>
<path d="M302.434 336.508C301.799 337.616 301.258 338.775 300.815 339.974V349.132C298.499 352.953 286.458 351.679 284.839 349.595C283.219 347.512 281.483 342.066 283.332 341.139C285.181 340.212 286.683 335.581 286.683 335.581C286.683 335.581 284.713 336.044 281.587 332.336C278.461 328.628 279.387 320.406 279.972 318.439C280.556 316.472 279.972 309.866 279.972 309.866C279.972 309.866 280.089 305.235 279.162 303.727C278.236 302.219 276.292 293.651 276.292 293.651C276.292 293.651 276.292 290.757 274.668 289.249C273.044 287.742 272.005 281.837 272.005 281.837C271.058 280.361 270.649 278.602 270.849 276.859C271.196 273.961 268.879 270.833 268.879 270.833L264.944 258.327L261.242 248.943L259.159 254.389C259.159 254.389 258.579 267.129 259.042 269.794C259.505 272.458 260.198 279.524 260.198 279.524C260.198 279.524 257.886 284.155 258.925 288.092C259.964 292.03 259.622 300.487 259.622 300.487C259.622 300.487 260.661 317.975 259.735 319.366C258.808 320.756 258.925 324.231 258.925 324.231C258.925 324.231 263.688 334.42 262.168 335.811C260.648 337.201 261.125 341.009 261.125 341.009C261.125 341.009 264.368 341.009 262.978 342.4C261.588 343.79 260.545 351.064 260.545 351.064L246.551 352.688C246.551 352.688 245.252 351.064 243.416 346.779C241.58 342.495 243.763 342.959 245.624 342.495C247.486 342.031 246.308 340.875 244.109 339.463C241.909 338.05 243.182 334.944 243.182 334.944C243.182 334.944 246.538 329.269 245.382 328.806C244.226 328.342 244.109 320.349 244.109 320.349C244.109 320.349 241.793 310.853 242.377 308.306C242.962 305.759 240.502 299.659 240.502 299.659L239.693 292.36C235.523 285.181 237.147 278.579 237.147 278.579V267.359C237.147 267.359 233.904 245.586 233.441 234.582C233.146 227.534 233.228 217.917 233.324 211.917C233.38 208.551 233.441 206.32 233.441 206.32L283.449 201.121C283.449 201.121 283.397 203.43 284.358 208.555C284.865 211.302 285.657 214.858 286.921 219.307C290.51 232.048 288.311 241.544 288.311 241.544L287.848 257.638C287.848 257.638 292.247 268.412 291.311 272.116C290.756 274.314 290.446 276.568 290.385 278.835C290.385 278.835 300.235 302.341 299.192 309.19C298.148 316.039 302.434 326.795 302.434 326.795C302.434 326.795 303.59 334.42 302.434 336.508Z" fill="#575988"/>
<path opacity="0.05" d="M273.841 276.162L289.064 274.134C289.064 274.134 280.44 282.937 273.841 276.162Z" fill="black"/>
<path opacity="0.1" d="M286.865 259.253C286.865 259.253 287.384 264.638 284.085 266.666C284.085 266.666 289.991 265.739 286.865 259.253Z" fill="black"/>
<path opacity="0.1" d="M285.93 242.111C285.93 242.111 273.205 252.591 268.576 251.724C263.948 250.858 285.93 242.111 285.93 242.111Z" fill="black"/>
<path opacity="0.1" d="M254.972 281.087C254.972 281.087 245.308 283.284 245.014 287.152C244.719 291.021 254.972 281.087 254.972 281.087Z" fill="black"/>
<path opacity="0.05" d="M257.098 329.382C257.098 329.382 243.438 331.933 247.317 333.671C251.197 335.408 257.561 336.794 257.561 336.794C257.561 336.794 261.96 337.028 257.098 329.382Z" fill="black"/>
<g opacity="0.05">
<path opacity="0.05" d="M244.559 336.426C244.215 336.211 243.924 335.922 243.707 335.579C243.491 335.236 243.354 334.849 243.308 334.446L243.169 334.688C243.169 334.688 241.897 337.816 244.096 339.207L244.81 339.675C245.213 339.601 245.65 339.545 246.075 339.436C247.936 338.973 246.759 337.816 244.559 336.426Z" fill="black"/>
<path opacity="0.05" d="M262.155 335.499C262.528 335.152 262.515 334.264 262.285 333.12C261.67 334.017 261.523 335.412 261.51 336.473C261.653 336.106 261.873 335.774 262.155 335.499Z" fill="black"/>
<path opacity="0.05" d="M260.051 277.877C259.545 279.246 259.235 280.68 259.129 282.136C259.39 281.13 259.743 280.151 260.185 279.212C260.185 279.212 260.133 278.687 260.051 277.877Z" fill="black"/>
<path opacity="0.05" d="M291.324 271.795C291.419 271.38 291.461 270.955 291.45 270.53C291.281 271.396 291.16 272.198 291.073 272.9C291.147 272.54 291.229 272.172 291.324 271.795Z" fill="black"/>
<path opacity="0.05" d="M259.722 319.054C259.912 318.768 260.016 317.815 260.068 316.481C259.635 317.325 259.458 318.69 259.401 319.73C259.481 319.492 259.589 319.266 259.722 319.054Z" fill="black"/>
<path opacity="0.05" d="M262.593 340.896C261.64 343.496 260.995 348.01 260.995 348.01L246.997 349.63C246.997 349.63 245.698 348.01 243.862 343.725C243.702 343.348 243.572 343.01 243.468 342.703C242.628 343.088 242.299 343.959 243.399 346.502C245.252 350.787 246.534 352.411 246.534 352.411L260.532 350.778C260.532 350.778 261.575 343.483 262.965 342.114C263.649 341.421 263.212 341.07 262.593 340.896Z" fill="black"/>
<path opacity="0.05" d="M244.096 320.094C244.096 320.094 244.213 328.086 245.369 328.55C245.953 327.229 246.343 325.951 245.802 325.764C244.646 325.305 244.529 317.312 244.529 317.312C244.529 317.312 242.213 307.812 242.797 305.265C243.382 302.717 240.944 296.579 240.944 296.579L240.134 289.284C235.965 282.101 237.588 275.499 237.588 275.499V264.27C237.588 264.27 234.346 242.493 233.882 231.489C233.588 224.445 233.67 214.828 233.765 208.828C233.765 207.74 233.804 206.779 233.822 205.969L233.419 206.008C233.419 206.008 233.358 208.239 233.302 211.605C233.207 217.605 233.125 227.2 233.419 234.27C233.882 245.274 237.125 267.047 237.125 267.047V278.284C237.125 278.284 235.502 284.887 239.671 292.065L240.481 299.364C240.481 299.364 242.91 305.503 242.334 308.029C241.758 310.554 244.096 320.094 244.096 320.094Z" fill="black"/>
<path opacity="0.05" d="M285.306 346.502C284.169 344.855 283.411 342.976 283.089 341C281.661 342.3 283.302 347.304 284.821 349.283C286.441 351.367 298.481 352.641 300.798 348.82V346.615C297.689 349.721 286.839 348.473 285.306 346.502Z" fill="black"/>
<path opacity="0.05" d="M302.902 333.415C302.265 334.522 301.721 335.682 301.278 336.88V338.505C301.543 337.912 301.919 337.119 302.439 336.187C302.772 335.585 302.911 334.524 302.945 333.315C302.928 333.354 302.915 333.389 302.902 333.415Z" fill="black"/>
<path opacity="0.05" d="M286.016 335.239C286.459 334.349 286.841 333.43 287.159 332.488C287.159 332.488 285.189 332.951 282.063 329.247C279.79 326.548 279.66 321.45 279.985 318.127C279.4 320.098 278.478 328.32 281.6 332.024C283.652 334.45 285.189 335.087 286.016 335.239Z" fill="black"/>
<path opacity="0.05" d="M279.981 309.554C280.184 311.836 280.261 314.129 280.21 316.42C280.269 316.058 280.349 315.699 280.448 315.346C281.033 313.379 280.448 306.777 280.448 306.777C280.448 306.777 280.565 302.141 279.639 300.638C278.712 299.135 276.725 290.562 276.725 290.562C276.725 290.562 276.725 287.663 275.105 286.16C273.486 284.657 272.443 278.748 272.443 278.748C271.495 277.27 271.087 275.51 271.287 273.766C271.633 270.872 269.317 267.744 269.317 267.744L265.381 255.233L261.679 245.854L259.592 251.295C259.592 251.295 259.562 251.98 259.523 253.054L261.216 248.631L264.918 258.014L268.853 270.521C268.853 270.521 271.17 273.649 270.823 276.547C270.623 278.29 271.032 280.049 271.979 281.525C271.979 281.525 273.023 287.434 274.642 288.937C276.261 290.44 276.292 293.338 276.292 293.338C276.292 293.338 278.262 301.912 279.188 303.415C280.115 304.918 279.981 309.554 279.981 309.554Z" fill="black"/>
</g>
<path d="M289.714 96.4834L288.848 100.712L288.9 102.592L288.934 103.982L284.085 104.459L283.544 103.458C282.544 101.647 280.47 97.9607 279.794 97.3932C278.903 96.6394 277.309 84.882 279.223 85.5795C280.389 86.0309 281.347 86.8982 281.912 88.0142C281.912 88.0142 291.411 89.1188 289.714 96.4834Z" fill="#FFCDD3"/>
<path opacity="0.1" d="M288.917 103.961L284.085 104.459L283.544 103.458C284.237 102.743 286.215 101.119 288.878 102.592L288.917 103.961Z" fill="black"/>
<path d="M290.147 106.248L283.769 107.747L283.635 106.794L283.276 104.242C283.276 104.242 285.791 100.88 289.441 103.397L289.757 104.697L290.147 106.248Z" fill="#DCE6F2"/>
<path d="M186.961 96.9167L180.172 100.573C180.172 100.573 179.912 100.036 179.557 99.2733C178.908 97.9174 177.947 95.8726 177.683 95.1405C177.28 94.0142 174.44 92.5932 174.44 92.5932C167.326 85.7875 175.804 79.9391 175.804 79.9391C180.289 70.9067 185.294 83.0063 185.294 83.0063C185.294 83.0063 185.987 89.3831 185.498 89.812C185.008 90.2409 185.008 91.9781 185.008 91.9781C185.658 93.2316 186.205 94.5355 186.645 95.877C186.849 96.5268 186.961 96.9167 186.961 96.9167Z" fill="#FFCDD3"/>
<path opacity="0.1" d="M186.961 96.9166L180.172 100.573C180.172 100.573 179.912 100.036 179.557 99.2732C180.514 98.4718 183.917 95.7123 185.034 95.8379C185.569 95.9042 186.108 95.9172 186.645 95.8769C186.849 96.5267 186.961 96.9166 186.961 96.9166Z" fill="black"/>
<path d="M187.658 98.9787L180.016 102.748L179.865 101.101L179.739 99.949C179.739 99.949 184.164 96.1541 185.472 96.3014C186.134 96.399 186.806 96.399 187.468 96.3014L187.554 97.679L187.658 98.9787Z" fill="#DCE6F2"/>
<path d="M271.178 124.551C271.178 124.551 237.866 128.311 244.092 126.284C248.421 124.872 250.153 122.112 250.508 119.054C250.803 116.493 250.145 113.725 249.27 111.342C248.483 109.24 247.485 107.222 246.291 105.321C246.291 105.321 271.759 91.3022 266.641 104.021C265.856 105.949 265.37 107.986 265.199 110.06C265.043 112.121 265.265 114.192 265.853 116.173C266.817 119.406 268.661 122.306 271.178 124.551Z" fill="#FFCDD3"/>
<path opacity="0.1" d="M266.662 104.047C265.877 105.975 265.391 108.011 265.221 110.086C262.822 112.101 260.19 111.971 256.812 111.971C254.215 111.971 251.344 112.599 249.27 111.347C248.483 109.244 247.485 107.226 246.291 105.325C246.291 105.325 271.759 91.3065 266.662 104.047Z" fill="black"/>
<path d="M256.362 112.854C263.971 112.854 270.139 106.683 270.139 99.0697C270.139 91.4566 263.971 85.2849 256.362 85.2849C248.753 85.2849 242.585 91.4566 242.585 99.0697C242.585 106.683 248.753 112.854 256.362 112.854Z" fill="#FFCDD3"/>
<path opacity="0.1" d="M271.178 124.551C271.178 124.551 237.866 128.311 244.092 126.284C248.421 124.872 250.153 122.112 250.508 119.054C252.167 117.26 255.5 115.96 257.639 115.272C259.601 114.611 261.719 114.576 263.701 115.172C264.479 115.404 265.218 115.748 265.896 116.194C266.852 119.414 268.68 122.307 271.178 124.551Z" fill="black"/>
<path opacity="0.1" d="M290.147 106.248L283.769 107.747L283.635 106.794C285.432 104.498 287.696 104.221 289.757 104.701L290.147 106.248Z" fill="black"/>
<path opacity="0.1" d="M187.658 98.9787L180.016 102.748L179.865 101.101C182.597 99.4899 187.173 97.8307 187.572 97.6877L187.658 98.9787Z" fill="black"/>
<path opacity="0.1" d="M284.358 208.542C271.455 210.578 253.093 213.234 250.179 212.346C247.763 211.609 240.043 211.687 233.324 211.912C233.38 208.546 233.441 206.315 233.441 206.315L283.449 201.117C283.449 201.117 283.397 203.417 284.358 208.542Z" fill="black"/>
<path d="M297.226 205.509C297.226 205.509 254.743 212.809 250.179 211.418C245.616 210.028 222.214 211.535 222.214 211.535C211.679 218.597 216.078 208.174 216.078 208.174C216.078 208.174 215.152 202.733 216.425 198.331C217.274 195.103 217.853 191.809 218.157 188.484C218.157 188.484 217.927 181.553 219.2 179.915C220.473 178.278 221.976 166.711 221.976 166.711C221.976 166.711 223.136 158.835 223.019 157.098C222.902 155.361 223.365 150.496 223.365 150.496L224.876 142.404C216.217 141.247 189.806 125.032 189.806 125.032C188.533 119.586 178.691 106.837 178.691 106.837C178.548 105.766 178.277 104.716 177.882 103.709C177.185 101.855 187.606 98.1512 187.606 98.1512C187.606 98.1512 195.361 107.647 196.98 110.194C198.599 112.742 204.159 117.494 204.159 117.494C205.022 117.405 205.894 117.52 206.705 117.828C206.752 117.828 206.791 117.854 206.839 117.867C206.887 117.88 206.839 117.867 206.839 117.867C209.437 118.772 212.035 120.843 212.035 120.843C216.204 120.613 219.096 123.507 219.096 123.507C219.096 123.507 223.859 122.814 224.651 123.624C225.444 124.434 229.514 123.624 229.514 123.624C229.514 123.624 233.566 115.051 236.229 117.559C238.892 120.067 250.188 119.933 250.188 119.933C251.695 117.932 255.358 116.498 257.648 115.757C259.609 115.096 261.728 115.061 263.71 115.657C264.564 115.901 265.37 116.291 266.091 116.81L272.945 123.524C272.945 123.524 274.915 120.977 274.677 120.397C274.439 119.816 276.993 119.357 276.993 119.357C276.993 119.357 280.349 118.313 281.622 117.966C282.895 117.62 284.064 118.997 284.167 119.119C284.124 118.971 283.254 116.168 283.592 114.028C283.929 111.888 282.202 109.857 282.202 109.857C286.254 99.8927 295.399 108.236 295.399 108.236C295.399 108.236 296.442 113.682 295.516 115.766C294.589 117.849 296.442 122.264 296.208 123.407C295.975 124.551 296.672 126.535 296.672 128.736C296.672 130.937 295.516 135.108 294.819 136.967C294.121 138.825 288.545 142.967 288.545 142.967C288.545 142.967 288.194 149.569 285.765 153.39C283.336 157.211 284.839 170.285 284.839 170.285C284.839 170.285 287.155 180.479 290.034 183.715C292.913 186.951 297.226 205.509 297.226 205.509Z" fill="#656691"/>
<path opacity="0.1" d="M235.294 129.299C235.294 129.299 234.021 125.478 232.865 125.127C231.712 124.703 230.589 124.201 229.505 123.624L230.25 122.199C230.25 122.199 234.601 123.39 235.294 124.664C235.986 125.937 235.294 129.299 235.294 129.299Z" fill="black"/>
<path opacity="0.1" d="M212.026 120.843C211.796 122.004 201.492 123.043 201.492 123.043L206.687 117.819L206.817 117.862C209.45 118.772 212.026 120.843 212.026 120.843Z" fill="black"/>
<path d="M182.216 105.871C182.728 105.871 183.142 105.456 183.142 104.944C183.142 104.432 182.728 104.017 182.216 104.017C181.704 104.017 181.289 104.432 181.289 104.944C181.289 105.456 181.704 105.871 182.216 105.871Z" fill="#575988"/>
<path d="M183.402 107.725C183.914 107.725 184.329 107.31 184.329 106.798C184.329 106.286 183.914 105.871 183.402 105.871C182.89 105.871 182.476 106.286 182.476 106.798C182.476 107.31 182.89 107.725 183.402 107.725Z" fill="#575988"/>
<path d="M184.563 109.436C185.074 109.436 185.489 109.021 185.489 108.509C185.489 107.997 185.074 107.582 184.563 107.582C184.051 107.582 183.636 107.997 183.636 108.509C183.636 109.021 184.051 109.436 184.563 109.436Z" fill="#575988"/>
<path d="M185.775 111.286C186.287 111.286 186.701 110.871 186.701 110.359C186.701 109.847 186.287 109.432 185.775 109.432C185.263 109.432 184.848 109.847 184.848 110.359C184.848 110.871 185.263 111.286 185.775 111.286Z" fill="#575988"/>
<path d="M294.892 111.013C295.308 111.013 295.645 110.676 295.645 110.26C295.645 109.843 295.308 109.506 294.892 109.506C294.476 109.506 294.139 109.843 294.139 110.26C294.139 110.676 294.476 111.013 294.892 111.013Z" fill="#575988"/>
<path d="M295.009 112.72C295.425 112.72 295.762 112.383 295.762 111.966C295.762 111.55 295.425 111.213 295.009 111.213C294.593 111.213 294.256 111.55 294.256 111.966C294.256 112.383 294.593 112.72 295.009 112.72Z" fill="#575988"/>
<path d="M295.113 114.431C295.529 114.431 295.866 114.094 295.866 113.677C295.866 113.261 295.529 112.924 295.113 112.924C294.697 112.924 294.36 113.261 294.36 113.677C294.36 114.094 294.697 114.431 295.113 114.431Z" fill="#575988"/>
<path opacity="0.1" d="M235.35 160.685C235.246 160.551 261.328 193.523 281.596 174.47C281.596 174.461 249.59 178.815 235.35 160.685Z" fill="black"/>
<path opacity="0.1" d="M220.361 177.827C220.361 177.827 235.973 178.261 237.61 182.749V187.423C237.166 187.672 236.666 187.802 236.157 187.802C235.649 187.802 235.149 187.672 234.705 187.423C233.129 186.557 223.69 181.791 220.361 184.083V177.827Z" fill="black"/>
<path d="M220.651 177.827C220.651 177.827 235.584 178.235 237.147 182.519V186.977C236.722 187.214 236.244 187.339 235.757 187.339C235.27 187.339 234.792 187.214 234.367 186.977C232.865 186.167 223.833 181.592 220.651 183.793V177.827Z" fill="#656691"/>
<path opacity="0.1" d="M228.886 143.903C228.886 143.903 230.674 148.503 234.947 154.3C237.589 157.846 240.79 160.939 244.425 163.458C244.425 163.458 229.146 146.051 228.886 143.903Z" fill="black"/>
<path opacity="0.1" d="M223.777 125.747C223.777 125.747 226.375 137.01 233.094 140.822L223.777 125.747Z" fill="black"/>
<path opacity="0.1" d="M219.78 126.886C219.715 126.678 217.468 135.784 228.44 140.822C228.435 140.822 223.777 139.241 219.78 126.886Z" fill="black"/>
<path opacity="0.1" d="M287.982 119.34C287.809 119.34 293.394 122.896 294.909 124.538C294.909 124.551 291.264 119.106 287.982 119.34Z" fill="black"/>
<path d="M252.639 111.563C252.833 112.274 253.071 113.054 253.712 113.426C254.117 113.621 254.562 113.72 255.011 113.716C259.211 113.976 263.58 114.15 267.468 112.542C268.192 112.285 268.841 111.853 269.36 111.286C270.048 110.441 270.183 109.293 270.46 108.254C271.005 106.196 272.166 104.355 273.005 102.401C274.413 99.0887 274.885 95.4534 274.369 91.8913C274.261 90.7971 273.901 89.7428 273.317 88.8112C272.2 87.2213 270.174 86.5758 268.697 85.3108C267.221 84.0459 266.277 82.1094 264.558 81.1564C263.008 80.2899 261.094 80.3982 259.363 80.6928C255.928 81.2789 252.636 82.5155 249.664 84.3361C248.668 84.9513 247.573 85.6574 246.421 85.4408C245.417 85.2502 244.689 84.4054 244.04 83.6127C243.217 85.5017 242.862 87.5614 243.005 89.6169C243.049 89.9181 243.039 90.2248 242.975 90.5224C242.832 90.8826 242.614 91.2077 242.334 91.4754C241.299 92.6797 240.65 94.5859 241.676 95.8075C242.109 96.336 242.806 96.6263 243.239 97.1635C244.018 98.1339 243.754 99.5245 243.737 100.763C243.69 101.194 243.798 101.626 244.04 101.985C244.429 102.457 245.139 102.496 245.741 102.392C246.343 102.288 246.958 102.085 247.551 102.219C248.198 102.435 248.753 102.862 249.127 103.432C251.067 105.88 251.825 108.613 252.639 111.563Z" fill="#2D293D"/>
<g opacity="0.1">
<path opacity="0.1" d="M269.823 110.225C269.304 110.792 268.655 111.223 267.931 111.481C264.034 113.101 259.674 112.915 255.474 112.651C255.025 112.658 254.58 112.56 254.176 112.365C253.539 111.988 253.31 111.213 253.102 110.502C252.288 107.53 251.53 104.818 249.59 102.349C249.216 101.779 248.661 101.352 248.014 101.136C247.421 101.002 246.806 101.205 246.205 101.309C245.603 101.413 244.906 101.374 244.503 100.902C244.261 100.543 244.154 100.111 244.2 99.6804C244.2 98.4415 244.477 97.0465 243.702 96.0805C243.269 95.539 242.585 95.253 242.135 94.7245C241.494 93.9577 241.511 92.9224 241.87 91.9563C241.134 93.126 240.814 94.6292 241.676 95.6473C242.109 96.1801 242.806 96.466 243.239 97.0075C244.014 97.9736 243.754 99.3685 243.737 100.608C243.69 101.038 243.798 101.471 244.04 101.829C244.429 102.301 245.139 102.34 245.741 102.236C246.343 102.132 246.958 101.929 247.551 102.063C248.198 102.279 248.753 102.706 249.127 103.276C251.067 105.745 251.825 108.475 252.638 111.429C252.833 112.135 253.071 112.915 253.712 113.292C254.117 113.487 254.562 113.585 255.011 113.578C259.211 113.842 263.58 114.011 267.468 112.408C268.192 112.15 268.841 111.719 269.36 111.152C269.622 110.817 269.825 110.439 269.957 110.034C269.914 110.099 269.871 110.164 269.823 110.225Z" fill="black"/>
<path opacity="0.1" d="M243.018 90.1412C243.21 89.9417 243.357 89.7041 243.451 89.4437C243.515 89.1461 243.525 88.8395 243.481 88.5383C243.367 86.8499 243.586 85.1556 244.126 83.552L244.053 83.4611C243.23 85.35 242.875 87.4098 243.018 89.4654C243.04 89.6901 243.04 89.9164 243.018 90.1412Z" fill="black"/>
</g>
<path opacity="0.1" d="M250.179 119.916C250.179 119.916 267.39 122.199 268.936 119.613L250.179 119.916Z" fill="black"/>
<path opacity="0.1" d="M283.652 112.794C283.652 112.794 293.212 112.794 295.316 116.389L283.652 112.794Z" fill="black"/>
</g>
<defs>
<linearGradient id="paint0_linear" x1="333.621" y1="161.214" x2="333.621" y2="70.5211" gradientUnits="userSpaceOnUse">
<stop stop-color="#808080" stop-opacity="0.25"/>
<stop offset="0.54" stop-color="#808080" stop-opacity="0.12"/>
<stop offset="1" stop-color="#808080" stop-opacity="0.1"/>
</linearGradient>
<linearGradient id="paint1_linear" x1="18487.8" y1="38039.5" x2="18487.8" y2="16703.6" gradientUnits="userSpaceOnUse">
<stop stop-color="#808080" stop-opacity="0.25"/>
<stop offset="0.54" stop-color="#808080" stop-opacity="0.12"/>
<stop offset="1" stop-color="#808080" stop-opacity="0.1"/>
</linearGradient>
<linearGradient id="paint2_linear" x1="70832.8" y1="87353.2" x2="70832.8" y2="54873.4" gradientUnits="userSpaceOnUse">
<stop stop-color="#808080" stop-opacity="0.25"/>
<stop offset="0.54" stop-color="#808080" stop-opacity="0.12"/>
<stop offset="1" stop-color="#808080" stop-opacity="0.1"/>
</linearGradient>
<linearGradient id="paint3_linear" x1="18695.3" y1="80462.6" x2="18695.3" y2="50600.3" gradientUnits="userSpaceOnUse">
<stop stop-color="#808080" stop-opacity="0.25"/>
<stop offset="0.54" stop-color="#808080" stop-opacity="0.12"/>
<stop offset="1" stop-color="#808080" stop-opacity="0.1"/>
</linearGradient>
<linearGradient id="paint4_linear" x1="50376.4" y1="82788.3" x2="50376.4" y2="53348.3" gradientUnits="userSpaceOnUse">
<stop stop-color="#808080" stop-opacity="0.25"/>
<stop offset="0.54" stop-color="#808080" stop-opacity="0.12"/>
<stop offset="1" stop-color="#808080" stop-opacity="0.1"/>
</linearGradient>
<linearGradient id="paint5_linear" x1="67108.6" y1="21787.5" x2="67108.6" y2="11009.8" gradientUnits="userSpaceOnUse">
<stop stop-color="#808080" stop-opacity="0.25"/>
<stop offset="0.54" stop-color="#808080" stop-opacity="0.12"/>
<stop offset="1" stop-color="#808080" stop-opacity="0.1"/>
</linearGradient>
<linearGradient id="paint6_linear" x1="85320.9" y1="251873" x2="85320.9" y2="58557.3" gradientUnits="userSpaceOnUse">
<stop stop-color="#808080" stop-opacity="0.25"/>
<stop offset="0.54" stop-color="#808080" stop-opacity="0.12"/>
<stop offset="1" stop-color="#808080" stop-opacity="0.1"/>
</linearGradient>
<clipPath id="clip0">
<rect width="453" height="369" fill="white" transform="translate(6.10352e-05 0.141724)"/>
</clipPath>
</defs>
</svg>
