<svg width="1152" height="1645" viewBox="0 0 1152 1645" fill="none" xmlns="http://www.w3.org/2000/svg">
<path opacity="0.1" d="M847.922 399.683C945.652 379.27 1027.58 322.592 1076.51 228.599C1108.19 167.727 1131.74 125.009 1154.73 93L1154.73 1273.75C1130.4 1288.08 1104.28 1300.37 1078.11 1308.79C925.379 1357.95 812.901 1318.52 719.446 1242.27C655.506 1190.1 599.352 1137.56 528.653 1131.16C457.954 1124.75 388.343 1136.12 317.502 1115.89C178.205 1076.05 63.055 901.022 79.8924 754.67C95.0141 623.246 196.942 539.705 304.416 491.46C381.222 457.257 462.426 435.098 544.748 425.876C645.123 414.286 750.191 420.096 847.922 399.683Z" fill="#6C63FF"/>
</svg>
